<svg width="23" height="23" viewBox="0 0 23 23" fill="none" xmlns="http://www.w3.org/2000/svg">
<g clip-path="url(#clip0_1_497)">
<path d="M22.8461 11.57C22.8461 5.2216 17.7315 0.0755005 11.4231 0.0755005C5.11181 0.0769284 -0.00286865 5.2216 -0.00286865 11.5714C-0.00286865 17.3072 4.17512 22.0621 9.63535 22.9245V14.8927H6.73675V11.5714H9.63821V9.03691C9.63821 6.15686 11.3445 4.5662 13.9533 4.5662C15.2041 4.5662 16.5106 4.79038 16.5106 4.79038V7.61759H15.0699C13.652 7.61759 13.2093 8.5043 13.2093 9.41387V11.57H16.3764L15.8709 14.8912H13.2079V22.9231C18.6681 22.0606 22.8461 17.3058 22.8461 11.57Z" fill="#3E77AA"/>
</g>
<defs>
<clipPath id="clip0_1_497">
<rect width="22.8462" height="22.8462" fill="white" transform="translate(0 0.0769043)"/>
</clipPath>
</defs>
</svg>
