<svg width="17" height="17" viewBox="0 0 17 17" fill="none" xmlns="http://www.w3.org/2000/svg">
<path d="M9.01465 3.17188H7.95215V9.08572L11.7909 10.9102L12.247 9.95053L9.01465 8.41428V3.17188Z" fill="#3E77AA"/>
<path d="M8.5 0.53125C4.09899 0.53125 0.53125 4.09899 0.53125 8.5C0.53125 12.901 4.09899 16.4688 8.5 16.4688C12.901 16.4688 16.4688 12.901 16.4688 8.5C16.4688 4.09899 12.901 0.53125 8.5 0.53125ZM8.5 15.4062C4.68579 15.4062 1.59375 12.3142 1.59375 8.5C1.59375 4.68579 4.68579 1.59375 8.5 1.59375C12.3142 1.59375 15.4062 4.68579 15.4062 8.5C15.4062 12.3142 12.3142 15.4062 8.5 15.4062Z" fill="#3E77AA"/>
</svg>
