<svg width="23" height="23" viewBox="0 0 23 23" xmlns="http://www.w3.org/2000/svg">
<path d="M7.9975 23C8.92948 23 9.685 22.2445 9.685 21.3125C9.685 20.3805 8.92948 19.625 7.9975 19.625C7.06552 19.625 6.31 20.3805 6.31 21.3125C6.31 22.2445 7.06552 23 7.9975 23Z"/>
<path d="M18.25 23C19.182 23 19.9375 22.2445 19.9375 21.3125C19.9375 20.3805 19.182 19.625 18.25 19.625C17.318 19.625 16.5625 20.3805 16.5625 21.3125C16.5625 22.2445 17.318 23 18.25 23Z"/>
<path d="M22.8099 3.02749C22.7401 2.94146 22.6521 2.87195 22.5522 2.82397C22.4524 2.77599 22.3432 2.75072 22.2324 2.74999H6.61737L7.10487 4.24999H21.2499L19.2474 13.25H7.99737L4.56987 2.39749C4.5328 2.28233 4.46842 2.17786 4.38222 2.09297C4.29603 2.00808 4.19058 1.9453 4.07487 1.90999L0.999869 0.96499C0.905318 0.935935 0.805969 0.925788 0.707496 0.935128C0.609022 0.944468 0.513353 0.973113 0.42595 1.01943C0.249431 1.11296 0.117298 1.27278 0.0586192 1.46374C-5.99902e-05 1.6547 0.0195212 1.86114 0.113055 2.03766C0.206589 2.21418 0.366413 2.34631 0.557369 2.40499L3.24987 3.22999L6.69237 14.105L5.46237 15.11L5.36487 15.2075C5.06062 15.5581 4.88817 16.0039 4.87722 16.4679C4.86627 16.932 5.0175 17.3854 5.30487 17.75C5.50929 17.9986 5.76905 18.1959 6.06337 18.3261C6.3577 18.4564 6.67841 18.5159 6.99987 18.5H19.5174C19.7163 18.5 19.907 18.421 20.0477 18.2803C20.1884 18.1397 20.2674 17.9489 20.2674 17.75C20.2674 17.5511 20.1884 17.3603 20.0477 17.2197C19.907 17.079 19.7163 17 19.5174 17H6.87987C6.7935 16.997 6.70936 16.9719 6.63556 16.9269C6.56177 16.8819 6.50081 16.8187 6.45859 16.7433C6.41637 16.6679 6.3943 16.5829 6.39453 16.4965C6.39475 16.4101 6.41726 16.3252 6.45987 16.25L8.26737 14.75H19.8474C20.0207 14.7542 20.1902 14.6983 20.327 14.5916C20.4637 14.4849 20.5593 14.3342 20.5974 14.165L22.9749 3.66499C22.9977 3.55318 22.9947 3.43764 22.9661 3.32716C22.9375 3.21669 22.8841 3.1142 22.8099 3.02749Z"/>
</svg>
