<svg width="24" height="24" viewBox="0 0 24 24" fill="none" xmlns="http://www.w3.org/2000/svg">
<path d="M14.7217 6.92041H9.23974C8.93516 6.9204 8.63356 6.98039 8.35216 7.09695C8.07077 7.2135 7.81508 7.38434 7.59971 7.59971C7.38434 7.81508 7.2135 8.07077 7.09695 8.35216C6.98039 8.63356 6.9204 8.93516 6.92041 9.23974V14.7217C6.92041 15.3368 7.16477 15.9268 7.59973 16.3617C7.81509 16.5771 8.07078 16.7479 8.35217 16.8645C8.63356 16.9811 8.93516 17.041 9.23974 17.041H14.7217C15.3368 17.041 15.9268 16.7967 16.3617 16.3617C16.7967 15.9268 17.041 15.3368 17.041 14.7217V9.23974C17.041 8.93516 16.981 8.63357 16.8645 8.35217C16.7479 8.07078 16.5771 7.8151 16.3617 7.59973C16.1464 7.38436 15.8907 7.21352 15.6093 7.09696C15.3279 6.9804 15.0263 6.92041 14.7217 6.92041ZM11.9807 15.1711C11.3497 15.1711 10.7329 14.984 10.2082 14.6335C9.68357 14.2829 9.27465 13.7846 9.03317 13.2016C8.7917 12.6187 8.72851 11.9772 8.85162 11.3583C8.97472 10.7394 9.27858 10.171 9.72477 9.72477C10.171 9.27858 10.7394 8.97472 11.3583 8.85162C11.9772 8.72851 12.6187 8.7917 13.2016 9.03317C13.7846 9.27465 14.2829 9.68357 14.6335 10.2082C14.984 10.7329 15.1711 11.3497 15.1711 11.9807C15.1711 12.3997 15.0886 12.8146 14.9283 13.2016C14.768 13.5887 14.533 13.9404 14.2367 14.2367C13.9404 14.533 13.5887 14.768 13.2016 14.9283C12.8146 15.0886 12.3997 15.1711 11.9807 15.1711V15.1711ZM15.3041 9.44206C15.154 9.44207 15.0073 9.39756 14.8824 9.31416C14.7576 9.23076 14.6603 9.11222 14.6029 8.97352C14.5454 8.83483 14.5304 8.68221 14.5596 8.53497C14.5889 8.38773 14.6612 8.25247 14.7674 8.14632C14.8735 8.04016 15.0088 7.96786 15.156 7.93857C15.3032 7.90928 15.4559 7.92431 15.5946 7.98176C15.7333 8.03921 15.8518 8.13649 15.9352 8.26132C16.0186 8.38614 16.0631 8.5329 16.0631 8.68302C16.0631 8.88432 15.9832 9.07738 15.8408 9.21972C15.6985 9.36207 15.5054 9.44204 15.3041 9.44206V9.44206Z" fill="url(#paint0_linear_123_59)"/>
<path d="M11.9807 9.90692C11.5706 9.90692 11.1696 10.0285 10.8286 10.2564C10.4875 10.4843 10.2217 10.8082 10.0648 11.1871C9.90782 11.5661 9.86675 11.983 9.94677 12.3853C10.0268 12.7876 10.2243 13.1571 10.5143 13.4471C10.8044 13.7372 11.1739 13.9347 11.5762 14.0147C11.9784 14.0947 12.3954 14.0536 12.7743 13.8967C13.1533 13.7397 13.4772 13.4739 13.705 13.1329C13.9329 12.7918 14.0545 12.3909 14.0545 11.9807C14.0545 11.4307 13.8361 10.9032 13.4471 10.5143C13.0582 10.1254 12.5307 9.90692 11.9807 9.90692V9.90692Z" fill="url(#paint1_linear_123_59)"/>
<path d="M11.9808 0.0384521C5.3852 0.0384521 0.0384521 5.3852 0.0384521 11.9808C0.0384521 18.5763 5.3852 23.9231 11.9808 23.9231C18.5763 23.9231 23.9231 18.5763 23.9231 11.9808C23.9231 5.3852 18.5763 0.0384521 11.9808 0.0384521ZM18.2007 14.6165C18.2007 15.5671 17.823 16.4787 17.1509 17.1509C16.4787 17.823 15.5671 18.2007 14.6165 18.2007H9.34506C8.39447 18.2007 7.48282 17.823 6.81065 17.1509C6.13847 16.4787 5.76083 15.5671 5.76078 14.6165V9.34506C5.76081 8.39446 6.13846 7.48281 6.81063 6.81065C7.48281 6.13848 8.39446 5.76085 9.34506 5.76082H14.6165C15.5671 5.76086 16.4787 6.1385 17.1509 6.81066C17.823 7.48283 18.2007 8.39447 18.2007 9.34506V14.6165Z" fill="url(#paint2_linear_123_59)"/>
<defs>
<linearGradient id="paint0_linear_123_59" x1="0.411619" y1="23.5498" x2="23.6583" y2="0.303157" gradientUnits="userSpaceOnUse">
<stop stop-color="#FFCB52"/>
<stop offset="0.318" stop-color="#FF6341"/>
<stop offset="0.658" stop-color="#CD39A2"/>
<stop offset="1" stop-color="#515BCA"/>
</linearGradient>
<linearGradient id="paint1_linear_123_59" x1="0.411611" y1="23.5498" x2="23.6583" y2="0.303131" gradientUnits="userSpaceOnUse">
<stop stop-color="#FFCB52"/>
<stop offset="0.318" stop-color="#FF6341"/>
<stop offset="0.658" stop-color="#CD39A2"/>
<stop offset="1" stop-color="#515BCA"/>
</linearGradient>
<linearGradient id="paint2_linear_123_59" x1="191.115" y1="12037.9" x2="12093.4" y2="135.584" gradientUnits="userSpaceOnUse">
<stop stop-color="#FFCB52"/>
<stop offset="0.318" stop-color="#FF6341"/>
<stop offset="0.658" stop-color="#CD39A2"/>
<stop offset="1" stop-color="#515BCA"/>
</linearGradient>
</defs>
</svg>
