<svg width="117" height="47" viewBox="0 0 117 47" fill="none" xmlns="http://www.w3.org/2000/svg">
<path d="M25.3719 28.5163C25.3638 29.0487 25.2763 29.5772 25.1119 30.0854C24.9273 30.6804 24.6187 31.2328 24.2051 31.7086C23.7916 32.1843 23.2817 32.5735 22.7069 32.8523C21.982 33.1915 21.1829 33.3566 20.3777 33.3335H4.71271C4.43066 33.3351 4.15098 33.2836 3.88938 33.1818C3.65151 33.0837 3.43473 32.9436 3.25021 32.7686C3.06287 32.5871 2.91385 32.3721 2.81146 32.1357C2.70531 31.8815 2.65194 31.6096 2.65438 31.3355V13.3797C2.64989 12.8464 2.86409 12.3331 3.25021 11.9518C3.43061 11.7641 3.64789 11.613 3.88938 11.5072C4.15098 11.4054 4.43066 11.3538 4.71271 11.3555H18.5198C19.0718 11.3649 19.6194 11.4531 20.1448 11.617C20.735 11.795 21.2859 12.077 21.7698 12.4487C22.2901 12.8578 22.7163 13.3673 23.021 13.9445C23.3837 14.6487 23.5605 15.4285 23.5356 16.2145V16.9625C23.5244 17.7338 23.4004 18.4998 23.1673 19.2377C22.9177 20.0668 22.5199 20.8474 21.9919 21.5442C22.4639 21.8273 22.9002 22.1626 23.2919 22.5432C23.7137 22.9444 24.0781 23.3982 24.3752 23.8927C24.6942 24.4392 24.9399 25.0227 25.1065 25.6292C25.2911 26.3244 25.3804 27.0402 25.3719 27.7579V28.5163ZM21.2498 27.7527C21.2569 27.2741 21.1705 26.7986 20.9952 26.3509C20.8336 25.9586 20.5903 25.6026 20.2802 25.3049C19.9732 25.0065 19.6039 24.7747 19.1969 24.6249C18.7291 24.4578 18.2331 24.3762 17.7344 24.3843H8.41229L11.0123 21.0107C11.1641 20.8118 11.3625 20.6503 11.5913 20.5394C11.82 20.4285 12.0726 20.3714 12.3285 20.3726H15.8548C16.3604 20.3762 16.8621 20.2875 17.3335 20.1111C17.7406 19.9614 18.1099 19.7296 18.4169 19.4312C18.7253 19.1333 18.9669 18.7772 19.1265 18.3851C19.2955 17.9361 19.3782 17.4611 19.3702 16.9834V16.2145C19.3702 15.6392 19.0831 15.3567 18.5144 15.3567H6.76021V29.3584H20.3777H20.6431C20.7453 29.3537 20.8443 29.3231 20.9302 29.2695C21.028 29.204 21.1049 29.1134 21.1523 29.008C21.2276 28.8436 21.261 28.6643 21.2498 28.4849V27.7527Z" fill="#98BE2B"/>
<path d="M54.2749 18.3063C54.441 18.6602 54.4865 19.0557 54.4049 19.4361C54.332 19.8124 54.1432 20.1587 53.8633 20.4299L44.487 29.447H54.237V33.3646H39.2004H39.157C38.8439 33.2725 38.554 33.1185 38.3059 32.9122C38.0579 32.706 37.857 32.4521 37.7162 32.1668C37.5625 31.8045 37.5237 31.4063 37.6048 31.0226C37.6858 30.639 37.8829 30.2872 38.1712 30.0119L47.5041 20.9948H37.7541V17.0772H52.417C52.8128 17.074 53.2008 17.1832 53.5329 17.391C53.8764 17.6105 54.1368 17.9317 54.2749 18.3063Z" fill="#98BE2B"/>
<path d="M88.8333 26.3553H78V22.375H88.8333V26.3553Z" fill="#98BE2B"/>
<path d="M114.421 18.7714C114.433 19.5965 114.315 20.4184 114.069 21.2088C113.858 21.883 113.54 22.5217 113.127 23.1022C112.746 23.6352 112.282 24.108 111.751 24.5039C111.25 24.8831 110.704 25.2043 110.126 25.4611C109.579 25.6998 109.004 25.8754 108.414 25.9841C107.88 26.0928 107.335 26.1489 106.789 26.1515L115.407 33.338H109.021L100.425 26.1515H97.4564L100.067 22.9453C100.217 22.7603 100.408 22.6108 100.627 22.5084C100.846 22.4059 101.086 22.3532 101.329 22.3542H105.944C106.728 22.329 107.498 22.1511 108.208 21.8312C108.609 21.6678 108.976 21.4356 109.292 21.146C109.608 20.8524 109.854 20.4953 110.012 20.1C110.188 19.6561 110.275 19.1839 110.267 18.7087V16.1981C110.276 16.0198 110.246 15.8417 110.18 15.6751C110.132 15.5703 110.055 15.48 109.958 15.4136C109.872 15.3593 109.773 15.3252 109.671 15.3142H109.395H95.8043V33.3589H91.6768V13.3946C91.6751 13.1269 91.7305 12.8616 91.8393 12.6153C91.939 12.3757 92.0862 12.1571 92.2726 11.972C92.458 11.7843 92.6835 11.638 92.9335 11.5431C93.1939 11.437 93.4741 11.3836 93.7568 11.3862H109.416C110.222 11.3615 111.022 11.5285 111.746 11.8726C112.348 12.1602 112.878 12.5707 113.3 13.0756C113.686 13.5415 113.976 14.074 114.156 14.6447C114.322 15.1528 114.411 15.6812 114.421 16.2138V18.7714Z" fill="#98BE2B"/>
<path d="M24.0937 19.9541C23.739 19.8784 23.3965 19.757 23.0753 19.5932C22.4541 19.2708 21.9359 18.7907 21.5765 18.2047C21.2172 17.6187 21.0304 16.9491 21.0363 16.2681C21.0422 15.5871 21.2405 14.9206 21.6099 14.3404C21.9793 13.7603 22.5058 13.2886 23.1325 12.9762C23.7592 12.6638 24.4624 12.5226 25.1661 12.5678C25.8698 12.613 26.5474 12.8429 27.1257 13.2327C27.7041 13.6225 28.1612 14.1573 28.4478 14.7796C28.7344 15.4019 28.8396 16.0879 28.752 16.7636C28.665 17.3888 28.4194 17.9835 28.037 18.4949" stroke="white" stroke-width="0.75" stroke-miterlimit="10" stroke-linecap="round"/>
<path d="M24.4024 18.4318C24.228 18.3939 24.0589 18.3359 23.8987 18.2592C23.5229 18.0796 23.2061 17.8031 22.9832 17.4603C22.7603 17.1175 22.64 16.7217 22.6359 16.3169C22.6317 15.9121 22.7437 15.5142 22.9594 15.1671C23.1752 14.82 23.4863 14.5374 23.8582 14.3507C24.2302 14.1639 24.6484 14.0803 25.0666 14.1091C25.4847 14.1378 25.8865 14.2779 26.2273 14.5136C26.568 14.7494 26.8345 15.0717 26.9971 15.4448C27.1598 15.8179 27.2122 16.2272 27.1487 16.6273C27.0984 16.9348 26.9822 17.2288 26.8074 17.4903" stroke="white" stroke-width="0.5" stroke-miterlimit="10"/>
<path d="M31.7039 28.0554L34.6019 30.6705L37.3102 29.6245L26.6285 20.8322L24.8844 34.5462L25.9189 34.133L26.9535 33.7303L28.4431 33.134L28.2481 34.6665L24.1369 36.3089C24.0394 36.3516 23.932 36.3684 23.8256 36.3576C23.7192 36.3468 23.6177 36.3088 23.5316 36.2475C23.4455 36.1862 23.3779 36.1038 23.3357 36.0089C23.2936 35.9139 23.2784 35.8099 23.2919 35.7074L25.3935 19.2108C25.4055 19.1074 25.4466 19.0091 25.5123 18.9266C25.578 18.8441 25.6658 18.7806 25.7663 18.7429C25.8667 18.7051 25.976 18.6947 26.0821 18.7126C26.1883 18.7306 26.2873 18.7763 26.3685 18.8447L39.2114 29.4153C39.2884 29.4801 39.347 29.5627 39.3817 29.6554C39.4164 29.7482 39.4261 29.8479 39.4098 29.9452C39.3936 30.0426 39.3519 30.1343 39.2888 30.2118C39.2256 30.2893 39.1431 30.3499 39.0489 30.3881L34.2877 32.2815L30.9131 29.2113L29.7323 29.6977L29.9435 28.3012L30.9077 27.9141C31.0406 27.862 31.1861 27.8476 31.3271 27.8726C31.4682 27.8976 31.5989 27.961 31.7039 28.0554Z" fill="white"/>
<path d="M61.2083 29.4517V33.3587H57.1079V25.3197C57.0962 24.1809 57.3152 23.0509 57.7524 21.9932C58.1545 21.0171 58.7602 20.1314 59.5317 19.3909C60.3033 18.6504 61.2242 18.0709 62.2374 17.6886C63.3193 17.2728 64.4748 17.065 65.6391 17.0766H73.6666C73.8749 17.0744 74.0814 17.1135 74.2733 17.1917C74.6491 17.3454 74.9483 17.6342 75.1075 17.9972C75.1884 18.1825 75.229 18.3819 75.2266 18.583V33.3587H71.0774V29.3157H62.5029L64.7724 26.779C64.9006 26.6371 65.0588 26.5236 65.2364 26.4459C65.4139 26.3683 65.6067 26.3285 65.8016 26.3291H71.0558L71.0016 20.968H66.8524C66.7549 20.968 66.3108 20.968 66.0183 21.0046C65.6513 21.0393 65.2885 21.1076 64.9349 21.2086C64.496 21.3297 64.0712 21.4945 63.6674 21.7003C63.2072 21.9362 62.7929 22.2477 62.4433 22.6208C62.0449 23.0496 61.7327 23.5462 61.5224 24.0853C61.2629 24.7681 61.1397 25.4922 61.1595 26.2193L61.2083 29.4517Z" fill="#98BE2B"/>
</svg>
