<svg width="25" height="24" viewBox="0 0 25 24" fill="none" xmlns="http://www.w3.org/2000/svg">
<path d="M0.346191 11.9808C0.346191 18.5764 5.69292 23.9232 12.2885 23.9232C18.8841 23.9232 24.2309 18.5764 24.2309 11.9808C24.2309 5.38522 18.8841 0.0384939 12.2885 0.0384939C5.69292 0.0384939 0.346191 5.38522 0.346191 11.9808" fill="url(#paint0_linear_1_514)"/>
<path d="M8.43005 12.8536L9.84694 16.7754C9.84694 16.7754 10.0241 17.1422 10.2138 17.1422C10.4036 17.1422 13.2247 14.2072 13.2247 14.2072L16.3621 8.14745L8.48066 11.8415L8.43005 12.8536Z" fill="#C8DAEA"/>
<path d="M10.3086 13.8594L10.0366 16.7501C10.0366 16.7501 9.92271 17.6357 10.8083 16.7501C11.6938 15.8645 12.5414 15.1814 12.5414 15.1814" fill="#A9C6D8"/>
<path d="M8.45555 12.9937L5.54132 12.044C5.54132 12.044 5.19347 11.9029 5.3052 11.5823C5.32828 11.5163 5.37473 11.4601 5.51389 11.363C6.15979 10.913 17.4667 6.84883 17.4667 6.84883C17.4667 6.84883 17.7861 6.74135 17.9748 6.8128C18.061 6.84549 18.1161 6.88243 18.1624 7.01724C18.1793 7.06632 18.1891 7.17067 18.1877 7.2745C18.1867 7.3494 18.1776 7.41872 18.1709 7.52752C18.1021 8.63876 16.0416 16.9314 16.0416 16.9314C16.0416 16.9314 15.9183 17.4167 15.4765 17.4332C15.3154 17.4392 15.1199 17.4066 14.8861 17.2055C14.0193 16.4598 11.0228 14.4461 10.3609 14.0033C10.3234 13.9784 10.3129 13.9459 10.3065 13.9142C10.2972 13.8677 10.347 13.8096 10.347 13.8096C10.347 13.8096 15.5644 9.17182 15.7032 8.68522C15.714 8.64747 15.6736 8.62884 15.6188 8.64514C15.2723 8.77266 9.2651 12.5659 8.6022 12.9849C8.56344 13.0094 8.45474 12.9936 8.45474 12.9936" fill="white"/>
<defs>
<linearGradient id="paint0_linear_1_514" x1="12.2885" y1="23.9231" x2="12.2885" y2="0.0383929" gradientUnits="userSpaceOnUse">
<stop stop-color="#1D93D2"/>
<stop offset="1" stop-color="#38B0E3"/>
</linearGradient>
</defs>
</svg>
