<svg width="28" height="27" viewBox="0 0 28 27" fill="none" xmlns="http://www.w3.org/2000/svg">
<path d="M14.1154 1.6875C7.59211 1.6875 2.30286 6.97676 2.30286 13.5C2.30286 20.0232 7.59211 25.3125 14.1154 25.3125C20.6386 25.3125 25.9279 20.0232 25.9279 13.5C25.9279 6.97676 20.6386 1.6875 14.1154 1.6875ZM19.7922 10.5917C19.8001 10.7156 19.8001 10.8448 19.8001 10.9714C19.8001 14.8421 16.8523 19.3008 11.4655 19.3008C9.80432 19.3008 8.26448 18.8183 6.96721 17.9877C7.20452 18.0141 7.43127 18.0246 7.67385 18.0246C9.04495 18.0246 10.3053 17.5605 11.3099 16.7748C10.0232 16.7484 8.94211 15.9047 8.57297 14.7445C9.02385 14.8104 9.42991 14.8104 9.89397 14.6918C9.23143 14.5572 8.63593 14.1974 8.20862 13.6735C7.78132 13.1495 7.54857 12.4938 7.54993 11.8178V11.7809C7.93752 11.9997 8.39368 12.1342 8.87092 12.1526C8.46973 11.8853 8.1407 11.523 7.91303 11.098C7.68536 10.673 7.56607 10.1984 7.56575 9.71631C7.56575 9.17051 7.70813 8.67217 7.96389 8.23975C8.69928 9.14503 9.61693 9.88543 10.6572 10.4128C11.6975 10.9402 12.8371 11.2428 14.002 11.301C13.588 9.31025 15.0751 7.69922 16.8628 7.69922C17.7066 7.69922 18.4659 8.05254 19.0012 8.62207C19.663 8.49814 20.2958 8.25029 20.8601 7.91807C20.6412 8.5957 20.1824 9.16787 19.5734 9.5291C20.164 9.46582 20.7335 9.30234 21.2609 9.07295C20.8627 9.6583 20.3644 10.1777 19.7922 10.5917Z" fill="#5BACE3"/>
</svg>
