<svg width="25" height="25" viewBox="0 0 25 25" fill="none" xmlns="http://www.w3.org/2000/svg">
<path d="M12.5 2.73438C10.5685 2.73437 8.68046 3.30712 7.07451 4.38018C5.46856 5.45324 4.21688 6.97842 3.47774 8.76286C2.73861 10.5473 2.54521 12.5108 2.92202 14.4052C3.29883 16.2995 4.22892 18.0396 5.59466 19.4053C6.96041 20.7711 8.70048 21.7012 10.5948 22.078C12.4892 22.4548 14.4527 22.2614 16.2371 21.5223C18.0216 20.7831 19.5468 19.5314 20.6198 17.9255C21.6929 16.3195 22.2656 14.4315 22.2656 12.5C22.2605 9.91158 21.2299 7.43065 19.3996 5.60036C17.5694 3.77007 15.0884 2.73954 12.5 2.73438ZM12.5 21.4844C10.7231 21.4844 8.98603 20.9575 7.50855 19.9702C6.03108 18.983 4.87953 17.5799 4.19952 15.9382C3.51952 14.2965 3.3416 12.49 3.68826 10.7472C4.03493 9.00444 4.8906 7.40357 6.14709 6.14709C7.40358 4.8906 9.00444 4.03492 10.7472 3.68826C12.49 3.34159 14.2965 3.51951 15.9382 4.19952C17.5799 4.87953 18.983 6.03108 19.9702 7.50855C20.9575 8.98602 21.4844 10.7231 21.4844 12.5C21.4818 14.882 20.5344 17.1657 18.8501 18.8501C17.1657 20.5344 14.882 21.4818 12.5 21.4844ZM13.2813 17.5781C13.2813 17.7326 13.2354 17.8837 13.1496 18.0122C13.0637 18.1406 12.9417 18.2408 12.799 18.2999C12.6562 18.359 12.4991 18.3745 12.3476 18.3444C12.196 18.3142 12.0568 18.2398 11.9476 18.1306C11.8383 18.0213 11.7639 17.8821 11.7338 17.7305C11.7036 17.579 11.7191 17.4219 11.7782 17.2792C11.8374 17.1364 11.9375 17.0144 12.066 16.9285C12.1944 16.8427 12.3455 16.7969 12.5 16.7969C12.7072 16.7969 12.9059 16.8792 13.0524 17.0257C13.1989 17.1722 13.2813 17.3709 13.2813 17.5781ZM15.625 10.5469C15.6241 11.3083 15.3461 12.0434 14.843 12.6148C14.3398 13.1863 13.6458 13.5551 12.8906 13.6523V15.0625C12.8906 15.1661 12.8495 15.2655 12.7762 15.3387C12.703 15.412 12.6036 15.4531 12.5 15.4531C12.3964 15.4531 12.297 15.412 12.2238 15.3387C12.1505 15.2655 12.1094 15.1661 12.1094 15.0625V13.2813C12.1094 13.1777 12.1505 13.0783 12.2238 13.005C12.297 12.9318 12.3964 12.8906 12.5 12.8906C12.9636 12.8906 13.4167 12.7532 13.8021 12.4956C14.1875 12.2381 14.488 11.8721 14.6653 11.4438C14.8427 11.0155 14.8892 10.5443 14.7987 10.0896C14.7083 9.63499 14.4851 9.21737 14.1573 8.88959C13.8295 8.56181 13.4119 8.33859 12.9572 8.24816C12.5026 8.15773 12.0314 8.20414 11.6031 8.38153C11.1748 8.55893 10.8088 8.85933 10.5512 9.24476C10.2937 9.63019 10.1563 10.0833 10.1563 10.5469C10.1563 10.6505 10.1151 10.7498 10.0418 10.8231C9.96859 10.8963 9.86923 10.9375 9.76563 10.9375C9.66203 10.9375 9.56267 10.8963 9.48942 10.8231C9.41616 10.7498 9.375 10.6505 9.375 10.5469C9.375 9.71807 9.70424 8.92322 10.2903 8.33717C10.8763 7.75112 11.6712 7.42188 12.5 7.42188C13.3288 7.42188 14.1237 7.75112 14.7097 8.33717C15.2958 8.92322 15.625 9.71807 15.625 10.5469Z" fill="black"/>
</svg>
