<svg width="25" height="25" viewBox="0 0 25 25" fill="none" xmlns="http://www.w3.org/2000/svg">
<path d="M6.1 18.8393H4.15C3.8353 18.8406 3.52344 18.7798 3.23232 18.6603C2.94119 18.5407 2.67654 18.3649 2.45355 18.1428C2.23055 17.9208 2.05361 17.6569 1.93288 17.3662C1.81215 17.0756 1.75 16.764 1.75 16.4493V5.66932C1.75 5.35462 1.81215 5.04301 1.93288 4.75239C2.05361 4.46177 2.23055 4.19785 2.45355 3.97579C2.67654 3.75372 2.94119 3.57789 3.23232 3.45837C3.52344 3.33885 3.8353 3.278 4.15 3.27932H20.42C21.0548 3.27931 21.6637 3.5308 22.1135 3.97872C22.5633 4.42665 22.8174 5.03453 22.82 5.66932V16.4493C22.8174 17.0841 22.5633 17.692 22.1135 18.1399C21.6637 18.5878 21.0548 18.8393 20.42 18.8393H10.7" stroke="#1D1D1B" stroke-miterlimit="10" stroke-linecap="round"/>
<path d="M10.7 18.8398L6.52002 23.0498C6.48426 23.0881 6.43776 23.1147 6.38662 23.1261C6.33548 23.1375 6.28209 23.1332 6.23345 23.1138C6.1848 23.0943 6.14317 23.0606 6.114 23.0171C6.08484 22.9736 6.06951 22.9222 6.07002 22.8698V18.8698" stroke="#1D1D1B" stroke-miterlimit="10" stroke-linecap="round"/>
</svg>
