<svg width="24" height="24" viewBox="0 0 24 24" fill="none" xmlns="http://www.w3.org/2000/svg">
<path d="M20 7.99902H14.388L15.511 4.63202C15.713 4.02402 15.611 3.35002 15.236 2.83002C14.861 2.31002 14.253 1.99902 13.612 1.99902H12C11.703 1.99902 11.422 2.13102 11.231 2.35902L6.531 7.99902H4C2.897 7.99902 2 8.89602 2 9.99902V18.999C2 20.102 2.897 20.999 4 20.999H17.307C17.7139 20.9977 18.1108 20.8729 18.4452 20.6411C18.7796 20.4093 19.0359 20.0815 19.18 19.701L21.937 12.35C21.9789 12.2377 22.0002 12.1189 22 11.999V9.99902C22 8.89602 21.103 7.99902 20 7.99902ZM4 9.99902H6V18.999H4V9.99902ZM20 11.818L17.307 18.999H8V9.36102L12.468 3.99902H13.614L12.052 8.68202C12.0013 8.83234 11.9871 8.99258 12.0107 9.14945C12.0343 9.30632 12.095 9.45531 12.1877 9.58407C12.2803 9.71282 12.4024 9.81762 12.5436 9.88978C12.6849 9.96195 12.8414 9.9994 13 9.99902H20V11.818Z" fill="#3E77AA"/>
</svg>
