<svg width="23" height="23" viewBox="0 0 23 23" fill="none" xmlns="http://www.w3.org/2000/svg">
<path d="M10.58 16.56C7.26801 16.56 4.60001 13.892 4.60001 10.58C4.60001 7.26798 7.26801 4.59998 10.58 4.59998C13.892 4.59998 16.56 7.26798 16.56 10.58C16.56 13.892 13.892 16.56 10.58 16.56ZM10.58 5.51998C7.77401 5.51998 5.52001 7.77398 5.52001 10.58C5.52001 13.386 7.77401 15.64 10.58 15.64C13.386 15.64 15.64 13.386 15.64 10.58C15.64 7.77398 13.386 5.51998 10.58 5.51998Z" fill="#8C8C8C"/>
<path d="M15.0337 14.3828L19.1645 18.5136L18.5141 19.1641L14.3833 15.0333L15.0337 14.3828Z" fill="#8C8C8C"/>
</svg>
