<svg width="25" height="25" viewBox="0 0 25 25" fill="none" xmlns="http://www.w3.org/2000/svg">
<path d="M12.5 23.4898C18.5696 23.4898 23.49 18.5694 23.49 12.4998C23.49 6.43016 18.5696 1.50977 12.5 1.50977C6.4304 1.50977 1.51001 6.43016 1.51001 12.4998C1.51001 18.5694 6.4304 23.4898 12.5 23.4898Z" stroke="#1E1E1C" stroke-miterlimit="10"/>
<path d="M8.62399 7.85623H12.586C13.4447 7.85623 14.0653 7.91223 14.448 8.02423C14.8307 8.1269 15.1573 8.33223 15.428 8.64023C15.8573 9.1349 16.072 9.77423 16.072 10.5582C16.072 11.2582 15.8853 11.8556 15.512 12.3502C15.1947 12.7609 14.7933 13.0222 14.308 13.1342C13.8227 13.2369 13.0993 13.2882 12.138 13.2882H9.51999V17.7402H8.62399V7.85623ZM9.51999 8.64023V12.4622H12.978C14.434 12.4622 15.162 11.8229 15.162 10.5442C15.162 10.1056 15.0687 9.73223 14.882 9.42423C14.6767 9.08823 14.4153 8.87357 14.098 8.78023C13.7807 8.6869 13.37 8.64023 12.866 8.64023H9.51999Z" fill="#1D1D1B"/>
</svg>
