<svg width="17" height="17" viewBox="0 0 17 17" xmlns="http://www.w3.org/2000/svg">
<path d="M8.5 1.0625C4.39277 1.0625 1.0625 4.39277 1.0625 8.5C1.0625 12.6072 4.39277 15.9375 8.5 15.9375C12.6072 15.9375 15.9375 12.6072 15.9375 8.5C15.9375 4.39277 12.6072 1.0625 8.5 1.0625ZM8.5 14.6758C5.09004 14.6758 2.32422 11.91 2.32422 8.5C2.32422 5.09004 5.09004 2.32422 8.5 2.32422C11.91 2.32422 14.6758 5.09004 14.6758 8.5C14.6758 11.91 11.91 14.6758 8.5 14.6758Z" />
<path d="M7.70312 5.57812C7.70313 5.78947 7.78708 5.99216 7.93652 6.1416C8.08597 6.29104 8.28866 6.375 8.5 6.375C8.71134 6.375 8.91403 6.29104 9.06348 6.1416C9.21292 5.99216 9.29688 5.78947 9.29688 5.57812C9.29688 5.36678 9.21292 5.16409 9.06348 5.01465C8.91403 4.86521 8.71134 4.78125 8.5 4.78125C8.28866 4.78125 8.08597 4.86521 7.93652 5.01465C7.78708 5.16409 7.70313 5.36678 7.70312 5.57812ZM8.89844 7.4375H8.10156C8.02852 7.4375 7.96875 7.49727 7.96875 7.57031V12.0859C7.96875 12.159 8.02852 12.2188 8.10156 12.2188H8.89844C8.97148 12.2188 9.03125 12.159 9.03125 12.0859V7.57031C9.03125 7.49727 8.97148 7.4375 8.89844 7.4375Z" />
</svg>
