<svg width="13" height="13" viewBox="0 0 13 13" fill="none" xmlns="http://www.w3.org/2000/svg">
<path d="M5.26316 1.89597L9.47353 6.21522C9.54748 6.29109 9.58887 6.39284 9.58887 6.49878C9.58887 6.60473 9.54748 6.70648 9.47353 6.78235L5.26316 11.1032C5.22871 11.1386 5.18753 11.1667 5.14203 11.1859C5.09654 11.2051 5.04766 11.215 4.99828 11.215C4.9489 11.215 4.90003 11.2051 4.85453 11.1859C4.80904 11.1667 4.76786 11.1386 4.73341 11.1032C4.66254 11.0307 4.62287 10.9333 4.62287 10.8318C4.62287 10.7304 4.66254 10.633 4.73341 10.5605L8.69272 6.49878L4.73341 2.43791C4.66278 2.36539 4.62326 2.26817 4.62326 2.16694C4.62326 2.06571 4.66278 1.96849 4.73341 1.89597C4.76786 1.86059 4.80904 1.83247 4.85453 1.81327C4.90003 1.79407 4.9489 1.78418 4.99828 1.78418C5.04766 1.78418 5.09654 1.79407 5.14203 1.81327C5.18753 1.83247 5.22871 1.86059 5.26316 1.89597Z" fill="#C2C2C2"/>
</svg>
