<svg width="12" height="12" viewBox="0 0 12 12" xmlns="http://www.w3.org/2000/svg">
<path d="M5.28301 1.54578C5.34906 1.41186 5.45126 1.2991 5.57806 1.22025C5.70486 1.1414 5.8512 1.09961 6.00051 1.09961C6.14983 1.09961 6.29617 1.1414 6.42297 1.22025C6.54977 1.2991 6.65197 1.41186 6.71801 1.54578L7.83001 3.79978L10.316 4.15978C10.4638 4.18124 10.6026 4.24364 10.7168 4.33991C10.8309 4.43618 10.9159 4.56248 10.962 4.70452C11.0081 4.84657 11.0135 4.99867 10.9776 5.14364C10.9418 5.2886 10.866 5.42063 10.759 5.52478L8.96001 7.27778L9.38501 9.75378C9.41007 9.90078 9.39354 10.0519 9.3373 10.19C9.28105 10.3281 9.18732 10.4477 9.06669 10.5354C8.94606 10.623 8.80333 10.6752 8.65461 10.6861C8.50589 10.6969 8.35709 10.666 8.22501 10.5968L6.00001 9.42778L3.77601 10.5968C3.64394 10.666 3.49514 10.6969 3.34642 10.6861C3.19769 10.6752 3.05496 10.623 2.93433 10.5354C2.81371 10.4477 2.71998 10.3281 2.66373 10.19C2.60749 10.0519 2.59096 9.90078 2.61601 9.75378L3.04001 7.27778L1.24101 5.52378C1.13427 5.41952 1.05881 5.28749 1.02317 5.1426C0.987518 4.99771 0.993103 4.84574 1.03929 4.70385C1.08547 4.56197 1.17042 4.43583 1.28452 4.33969C1.39863 4.24354 1.53735 4.18123 1.68501 4.15978L4.17101 3.79878L5.28201 1.54578H5.28301Z"/>
</svg>
