<svg width="21" height="21" viewBox="0 0 21 21" fill="none" xmlns="http://www.w3.org/2000/svg">
<path d="M10.5 1.3125C8.68289 1.3125 6.90658 1.85134 5.3957 2.86087C3.88483 3.87041 2.70724 5.3053 2.01186 6.9841C1.31648 8.66289 1.13454 10.5102 1.48904 12.2924C1.84354 14.0746 2.71857 15.7116 4.00346 16.9965C5.28835 18.2814 6.92541 19.1565 8.70761 19.511C10.4898 19.8655 12.3371 19.6835 14.0159 18.9881C15.6947 18.2928 17.1296 17.1152 18.1391 15.6043C19.1487 14.0934 19.6875 12.3171 19.6875 10.5C19.6875 8.06332 18.7195 5.72645 16.9965 4.00346C15.2736 2.28047 12.9367 1.3125 10.5 1.3125ZM10.5 18.375C8.94248 18.375 7.41993 17.9131 6.12489 17.0478C4.82985 16.1825 3.82049 14.9526 3.22445 13.5136C2.62841 12.0747 2.47246 10.4913 2.77632 8.96366C3.08018 7.43606 3.8302 6.03287 4.93154 4.93153C6.03288 3.8302 7.43607 3.08017 8.96367 2.77632C10.4913 2.47246 12.0747 2.62841 13.5136 3.22445C14.9526 3.82049 16.1825 4.82985 17.0478 6.12488C17.9131 7.41992 18.375 8.94247 18.375 10.5C18.375 12.5886 17.5453 14.5916 16.0685 16.0685C14.5916 17.5453 12.5886 18.375 10.5 18.375Z" fill="#FF833D"/>
<path d="M9.84375 5.25H11.1562V12.4688H9.84375V5.25Z" fill="#FF833D"/>
<path d="M10.5 14.4375C10.3053 14.4375 10.115 14.4952 9.95311 14.6034C9.79123 14.7116 9.66506 14.8653 9.59056 15.0452C9.51605 15.225 9.49656 15.423 9.53454 15.6139C9.57252 15.8049 9.66627 15.9803 9.80394 16.1179C9.94161 16.2556 10.117 16.3494 10.308 16.3873C10.4989 16.4253 10.6968 16.4058 10.8767 16.3313C11.0566 16.2568 11.2103 16.1306 11.3185 15.9688C11.4266 15.8069 11.4844 15.6166 11.4844 15.4219C11.4844 15.1608 11.3807 14.9104 11.1961 14.7258C11.0115 14.5412 10.7611 14.4375 10.5 14.4375Z" fill="#FF833D"/>
</svg>
