<svg width="25" height="25" viewBox="0 0 25 25" fill="none" xmlns="http://www.w3.org/2000/svg">
<path d="M12.4 23.4409C18.4696 23.4409 23.39 18.5205 23.39 12.4509C23.39 6.38133 18.4696 1.46094 12.4 1.46094C6.33036 1.46094 1.40997 6.38133 1.40997 12.4509C1.40997 18.5205 6.33036 23.4409 12.4 23.4409Z" stroke="#1E1E1C" stroke-miterlimit="10"/>
<path d="M12.79 6.83991L14.38 10.0699C14.4092 10.1334 14.4537 10.1885 14.5096 10.2304C14.5654 10.2724 14.6309 10.2997 14.7 10.3099L18.27 10.8299C18.3488 10.8437 18.4224 10.8787 18.4828 10.9311C18.5432 10.9836 18.5882 11.0515 18.6129 11.1276C18.6376 11.2037 18.641 11.2851 18.6229 11.3631C18.6048 11.441 18.5657 11.5125 18.51 11.5699L15.93 14.0799C15.8804 14.1289 15.8428 14.1887 15.8202 14.2546C15.7977 14.3205 15.7907 14.3908 15.8 14.4599L16.41 17.9999C16.4219 18.0794 16.4119 18.1607 16.3809 18.2349C16.35 18.3091 16.2993 18.3734 16.2343 18.4208C16.1694 18.4682 16.0927 18.4969 16.0126 18.5038C15.9325 18.5107 15.8521 18.4955 15.78 18.4599L12.59 16.7799C12.5291 16.7507 12.4625 16.7355 12.395 16.7355C12.3275 16.7355 12.2608 16.7507 12.2 16.7799L8.99997 18.4699C8.92743 18.5037 8.84705 18.5171 8.76747 18.5086C8.6879 18.5001 8.61215 18.47 8.54838 18.4217C8.4846 18.3734 8.43522 18.3085 8.40555 18.2342C8.37588 18.1599 8.36703 18.0789 8.37997 17.9999L8.99997 14.4599C9.00921 14.3908 9.00228 14.3205 8.97972 14.2546C8.95716 14.1887 8.91959 14.1289 8.86997 14.0799L6.27997 11.5699C6.22409 11.5118 6.18522 11.4395 6.16761 11.3609C6.15001 11.2823 6.15433 11.2003 6.18013 11.1239C6.20592 11.0476 6.25219 10.9798 6.31388 10.9279C6.37558 10.8761 6.45033 10.8422 6.52997 10.8299L10.09 10.3099C10.1591 10.2997 10.2245 10.2724 10.2804 10.2304C10.3363 10.1885 10.3808 10.1334 10.41 10.0699L12 6.83991C12.0362 6.76605 12.0924 6.70384 12.1623 6.66033C12.2321 6.61682 12.3127 6.59375 12.395 6.59375C12.4772 6.59375 12.5579 6.61682 12.6277 6.66033C12.6975 6.70384 12.7537 6.76605 12.79 6.83991V6.83991Z" stroke="#1E1E1C" stroke-miterlimit="10"/>
</svg>
