<svg width="24" height="24" viewBox="0 0 24 24" fill="none" xmlns="http://www.w3.org/2000/svg">
<path d="M19.7539 10.9997C19.9351 10.9997 20.1102 11.0654 20.2468 11.1845C20.3834 11.3036 20.4723 11.4682 20.4969 11.6477L20.5039 11.7497V18.7497C20.5042 19.5799 20.1869 20.3787 19.6169 20.9823C19.047 21.5859 18.2677 21.9485 17.4389 21.9957L17.2539 22.0007H6.25391C5.42377 22.0008 4.62508 21.6832 4.02168 21.1131C3.41827 20.5429 3.0559 19.7635 3.00891 18.9347L3.00391 18.7507V11.7497C3.00396 11.5597 3.07615 11.3768 3.20588 11.2379C3.33561 11.0991 3.5132 11.0147 3.70279 11.0017C3.89237 10.9888 4.0798 11.0482 4.22721 11.1682C4.37461 11.2881 4.47101 11.4595 4.49691 11.6477L4.50391 11.7497V18.7497C4.50369 19.1893 4.66887 19.6128 4.96661 19.9361C5.26436 20.2594 5.67285 20.4588 6.11091 20.4947L6.25391 20.5007H17.2539C17.6933 20.5007 18.1165 20.3354 18.4396 20.0377C18.7627 19.74 18.962 19.3316 18.9979 18.8937L19.0039 18.7507V11.7497C19.0039 11.5508 19.0829 11.3601 19.2236 11.2194C19.3642 11.0787 19.555 10.9997 19.7539 10.9997ZM6.21991 7.21573L11.2159 2.21973C11.3429 2.09271 11.5112 2.01549 11.6904 2.00209C11.8695 1.98869 12.0474 2.04002 12.1919 2.14673L12.2759 2.21873L17.2809 7.21573C17.4154 7.34939 17.4944 7.52905 17.5018 7.71855C17.5091 7.90805 17.4445 8.09332 17.3208 8.23705C17.1971 8.38079 17.0235 8.47233 16.835 8.49323C16.6465 8.51414 16.4571 8.46287 16.3049 8.34973L16.2209 8.27673L12.4979 4.56073L12.4989 16.2547C12.4989 16.436 12.4333 16.6111 12.3141 16.7477C12.195 16.8843 12.0305 16.9731 11.8509 16.9977L11.7489 17.0047C11.5677 17.0047 11.3926 16.9391 11.256 16.82C11.1194 16.7008 11.0306 16.5363 11.0059 16.3567L10.9989 16.2547V4.55773L7.27991 8.27673C7.15292 8.40375 6.98456 8.48098 6.80545 8.49437C6.62635 8.50777 6.44838 8.45645 6.30391 8.34973L6.21991 8.27673C6.09263 8.14969 6.01523 7.98114 6.00183 7.8018C5.98844 7.62246 6.03992 7.44428 6.14691 7.29973L6.21991 7.21573L11.2159 2.21973L6.21991 7.21573Z" fill="#3E77AA"/>
</svg>
