<svg width="24" height="24" viewBox="0 0 24 24" fill="none" xmlns="http://www.w3.org/2000/svg">
<path fill-rule="evenodd" clip-rule="evenodd" d="M3.25 4C3.1837 4 3.12011 4.02634 3.07322 4.07322C3.02634 4.12011 3 4.1837 3 4.25V16.75C3 16.888 3.112 17 3.25 17H5.75C5.94891 17 6.13968 17.079 6.28033 17.2197C6.42098 17.3603 6.5 17.5511 6.5 17.75V20.94L9.927 17.513C10.255 17.1848 10.7 17.0002 11.164 17H20.75C20.8163 17 20.8799 16.9737 20.9268 16.9268C20.9737 16.8799 21 16.8163 21 16.75V4.25C21 4.1837 20.9737 4.12011 20.9268 4.07322C20.8799 4.02634 20.8163 4 20.75 4H3.25ZM1.5 4.25C1.5 3.284 2.284 2.5 3.25 2.5H20.75C21.716 2.5 22.5 3.284 22.5 4.25V16.75C22.5 17.2141 22.3156 17.6592 21.9874 17.9874C21.6592 18.3156 21.2141 18.5 20.75 18.5H11.164C11.1311 18.4999 11.0986 18.5064 11.0682 18.5189C11.0379 18.5314 11.0103 18.5498 10.987 18.573L7.487 22.073C7.28324 22.2767 7.02367 22.4153 6.74111 22.4715C6.45854 22.5277 6.16567 22.4988 5.8995 22.3886C5.63333 22.2784 5.40581 22.0917 5.24571 21.8522C5.08561 21.6127 5.0001 21.3311 5 21.043V18.5H3.25C2.78587 18.5 2.34075 18.3156 2.01256 17.9874C1.68437 17.6592 1.5 17.2141 1.5 16.75V4.25ZM12 6C12.1989 6 12.3897 6.07902 12.5303 6.21967C12.671 6.36032 12.75 6.55109 12.75 6.75V10.75C12.75 10.9489 12.671 11.1397 12.5303 11.2803C12.3897 11.421 12.1989 11.5 12 11.5C11.8011 11.5 11.6103 11.421 11.4697 11.2803C11.329 11.1397 11.25 10.9489 11.25 10.75V6.75C11.25 6.55109 11.329 6.36032 11.4697 6.21967C11.6103 6.07902 11.8011 6 12 6ZM12 15C12.2652 15 12.5196 14.8946 12.7071 14.7071C12.8946 14.5196 13 14.2652 13 14C13 13.7348 12.8946 13.4804 12.7071 13.2929C12.5196 13.1054 12.2652 13 12 13C11.7348 13 11.4804 13.1054 11.2929 13.2929C11.1054 13.4804 11 13.7348 11 14C11 14.2652 11.1054 14.5196 11.2929 14.7071C11.4804 14.8946 11.7348 15 12 15Z" fill="#3E77AA"/>
</svg>
