<svg width="25" height="25" viewBox="0 0 25 25" fill="none" xmlns="http://www.w3.org/2000/svg">
<path d="M5.53998 15.9995V11.1895C5.53998 9.33294 6.27748 7.55246 7.59023 6.23971C8.90299 4.92695 10.6835 4.18945 12.54 4.18945V4.18945C13.4592 4.18945 14.3695 4.37051 15.2188 4.7223C16.068 5.07408 16.8397 5.5897 17.4897 6.23971C18.1397 6.88972 18.6554 7.66139 19.0071 8.51067C19.3589 9.35995 19.54 10.2702 19.54 11.1895V15.9995" stroke="#1E1E1C" stroke-miterlimit="10" stroke-linecap="round"/>
<path d="M5.53998 16.2598C4.71291 16.5832 4.00247 17.1484 3.50125 17.8815C3.00002 18.6146 2.73126 19.4817 2.72998 20.3698H22.27C22.2624 19.5195 22.0092 18.6895 21.5408 17.9798C21.0724 17.2702 20.4088 16.711 19.63 16.3698" stroke="#1E1E1C" stroke-miterlimit="10" stroke-linecap="round"/>
<path d="M12.53 23.4105C13.3071 23.4105 14.0523 23.1018 14.6018 22.5523C15.1513 22.0028 15.46 21.2576 15.46 20.4805H9.59998C9.59998 21.2576 9.90867 22.0028 10.4582 22.5523C11.0076 23.1018 11.7529 23.4105 12.53 23.4105V23.4105Z" stroke="#1E1E1C" stroke-miterlimit="10" stroke-linecap="round"/>
<path d="M12.52 4.35961C13.6964 4.35961 14.65 3.74176 14.65 2.97961C14.65 2.21746 13.6964 1.59961 12.52 1.59961C11.3436 1.59961 10.39 2.21746 10.39 2.97961C10.39 3.74176 11.3436 4.35961 12.52 4.35961Z" fill="#1E1E1C"/>
<path d="M10.53 2.48047L9.25 4.97047L11.57 4.21047" fill="#1E1E1C"/>
<path d="M14.54 2.51953L15.81 5.00953L13.49 4.25953" fill="#1E1E1C"/>
</svg>
