<svg width="30" height="28" viewBox="0 0 30 28" fill="none" xmlns="http://www.w3.org/2000/svg">
<g clip-path="url(#clip0_109_11611)">
<path d="M24.1802 26.6377H5.3267C5.00065 26.6377 4.73633 26.902 4.73633 27.2281V27.2345C4.73633 27.5605 5.00065 27.8249 5.3267 27.8249H24.1802C24.5062 27.8249 24.7706 27.5605 24.7706 27.2345V27.2281C24.7706 26.902 24.5062 26.6377 24.1802 26.6377Z" fill="#74789F"/>
<path d="M14.1621 6.3721L14.1621 26.9389C14.1621 27.265 14.4264 27.5293 14.7525 27.5293H14.7589C15.085 27.5293 15.3493 27.265 15.3493 26.9389L15.3493 6.3721C15.3493 6.04604 15.085 5.78169 14.7589 5.78169H14.7525C14.4264 5.78169 14.1621 6.04604 14.1621 6.3721Z" fill="#74789F"/>
<path d="M24.7623 -0.0264341L5.111 6.04163C4.79946 6.13783 4.62486 6.46836 4.72106 6.7799L4.72295 6.78604C4.81915 7.09758 5.14971 7.27213 5.46125 7.17593L25.1125 1.10787C25.4241 1.01167 25.5987 0.681134 25.5025 0.369593L25.5006 0.363456C25.4044 0.0519158 25.0738 -0.122634 24.7623 -0.0264341Z" fill="#74789F"/>
<path d="M14.7532 7.08453C16.0397 7.08453 17.0827 5.6595 17.0827 3.90164C17.0827 2.14378 16.0397 0.71875 14.7532 0.71875C13.4667 0.71875 12.4238 2.14378 12.4238 3.90164C12.4238 5.6595 13.4667 7.08453 14.7532 7.08453Z" fill="#74789F"/>
<path d="M14.7527 5.69792C15.4899 5.69792 16.0875 4.83601 16.0875 3.77279C16.0875 2.70957 15.4899 1.84766 14.7527 1.84766C14.0156 1.84766 13.418 2.70957 13.418 3.77279C13.418 4.83601 14.0156 5.69792 14.7527 5.69792Z" fill="white"/>
<path d="M5.10584 8.46866L0.0721299 18.2843C-0.0766559 18.5744 0.037955 18.9302 0.328083 19.079L0.333764 19.0819C0.623892 19.2307 0.979723 19.1161 1.12851 18.826L6.16222 9.0104C6.311 8.72027 6.19638 8.36449 5.90625 8.2157L5.90057 8.21279C5.61044 8.06401 5.25463 8.17853 5.10584 8.46866Z" fill="#74789F"/>
<path d="M5.14808 9.03412L10.1818 18.8497C10.3306 19.1398 10.6864 19.2544 10.9765 19.1056L10.9822 19.1027C11.2723 18.9539 11.3869 18.5981 11.2382 18.3079L6.20446 8.49238C6.05568 8.20225 5.69983 8.08766 5.4097 8.23645L5.40402 8.23936C5.11389 8.38815 4.9993 8.74399 5.14808 9.03412Z" fill="#74789F"/>
<path d="M5.66625 23.063C6.87735 23.0725 8.05142 22.646 8.97397 21.8613C9.89653 21.0766 10.5059 19.9861 10.6908 18.7892C10.697 18.7012 10.685 18.6129 10.6555 18.5298C10.626 18.4467 10.5797 18.3705 10.5195 18.3061C10.4593 18.2417 10.3864 18.1903 10.3055 18.1553C10.2246 18.1203 10.1373 18.1023 10.0491 18.1025H1.24485C1.15666 18.1023 1.06936 18.1203 0.988422 18.1553C0.907486 18.1903 0.834629 18.2417 0.774414 18.3061C0.714199 18.3705 0.667938 18.4467 0.638465 18.5298C0.608992 18.6129 0.596963 18.7012 0.603137 18.7892C0.786355 19.9939 1.40061 21.0912 2.33181 21.8772C3.263 22.6632 4.44785 23.0846 5.66625 23.063Z" stroke="#74789F" stroke-width="1.28342" stroke-miterlimit="10"/>
<path d="M23.7621 2.95893L18.7284 12.7745C18.5796 13.0646 18.6942 13.4204 18.9843 13.5692L18.99 13.5721C19.2801 13.7209 19.636 13.6063 19.7847 13.3162L24.8184 3.50065C24.9672 3.21052 24.8526 2.85469 24.5625 2.7059L24.5568 2.70297C24.2667 2.55419 23.9109 2.6688 23.7621 2.95893Z" fill="#74789F"/>
<path d="M23.8063 3.52436L28.84 13.3399C28.9887 13.63 29.3446 13.7446 29.6347 13.5958L29.6404 13.5929C29.9305 13.4441 30.0451 13.0883 29.8963 12.7982L24.8626 2.98263C24.7138 2.69251 24.358 2.57789 24.0679 2.72668L24.0622 2.72961C23.7721 2.8784 23.6575 3.23423 23.8063 3.52436Z" fill="#74789F"/>
<path d="M24.3267 17.5513C25.5374 17.562 26.7114 17.1357 27.6331 16.3506C28.5549 15.5656 29.1627 14.4744 29.3449 13.2775C29.3511 13.1895 29.339 13.1012 29.3096 13.0181C29.2801 12.935 29.2338 12.8588 29.1736 12.7944C29.1134 12.7299 29.0405 12.6786 28.9596 12.6436C28.8786 12.6086 28.7914 12.5906 28.7032 12.5908H19.9245C19.8363 12.5906 19.7491 12.6086 19.6681 12.6436C19.5872 12.6786 19.5144 12.7299 19.4541 12.7944C19.3939 12.8588 19.3476 12.935 19.3182 13.0181C19.2887 13.1012 19.2767 13.1895 19.2828 13.2775C19.4682 14.4777 20.0804 15.5708 21.007 16.3559C21.9335 17.1411 23.1123 17.5655 24.3267 17.5513Z" stroke="#74789F" stroke-width="1.28342" stroke-miterlimit="10"/>
</g>
<defs>
<clipPath id="clip0_109_11611">
<rect width="30" height="27.8246" fill="white"/>
</clipPath>
</defs>
</svg>
