<svg width="25" height="25" viewBox="0 0 25 25" fill="none" xmlns="http://www.w3.org/2000/svg">
<path d="M12.5 4.43024C13.2057 3.64585 14.0769 3.02811 15.0506 2.62169C16.0242 2.21526 17.0761 2.03032 18.13 2.08024C19.1929 2.14214 20.2191 2.49099 21.0996 3.08968C21.98 3.68837 22.6817 4.51452 23.13 5.48024C23.6702 6.86942 23.7405 8.39734 23.33 9.83024C22.9138 11.2527 22.2796 12.6021 21.45 13.8302C19.0807 17.4013 16.0576 20.4922 12.54 22.9402" stroke="#1D1D1B" stroke-miterlimit="10" stroke-linecap="round"/>
<path d="M12.5 4.43024C11.7943 3.64585 10.9232 3.02811 9.94947 2.62169C8.97579 2.21526 7.92395 2.03032 6.87002 2.08024C5.80712 2.14214 4.78087 2.49099 3.90044 3.08968C3.02001 3.68837 2.31833 4.51452 1.87002 5.48024C1.3298 6.86942 1.25955 8.39734 1.67002 9.83024C2.08622 11.2527 2.72041 12.6021 3.55002 13.8302C5.91934 17.4013 8.94243 20.4922 12.46 22.9402" stroke="#1D1D1B" stroke-miterlimit="10" stroke-linecap="round"/>
</svg>
