<svg width="20" height="20" viewBox="0 0 20 20" xmlns="http://www.w3.org/2000/svg">
<path d="M0 14.4117C0 13.3072 0.895431 12.4117 2 12.4117H5.4375C6.54207 12.4117 7.4375 13.3072 7.4375 14.4117V17.8235C7.4375 18.9281 6.54207 19.8235 5.4375 19.8235H2C0.89543 19.8235 0 18.9281 0 17.8235V14.4117Z"/>
<path d="M10.4375 14.4117C10.4375 13.3072 11.3329 12.4117 12.4375 12.4117H15.875C16.9796 12.4117 17.875 13.3072 17.875 14.4117V17.8235C17.875 18.9281 16.9796 19.8235 15.875 19.8235H12.4375C11.3329 19.8235 10.4375 18.9281 10.4375 17.8235V14.4117Z"/>
<path d="M0 4C0 2.89543 0.895431 2 2 2H5.4375C6.54207 2 7.4375 2.89543 7.4375 4V7.41176C7.4375 8.51633 6.54207 9.41177 5.4375 9.41177H2C0.89543 9.41177 0 8.51633 0 7.41177V4Z"/>
<path d="M12.7329 1.87015C13.514 1.0891 14.7803 1.0891 15.5614 1.87015L17.992 4.30083C18.7731 5.08187 18.7731 6.3482 17.992 7.12925L15.5796 9.54173C14.7985 10.3228 13.5322 10.3228 12.7511 9.54173L10.3205 7.11106C9.53941 6.33001 9.53941 5.06368 10.3205 4.28263L12.7329 1.87015Z"/>
</svg>
