<svg width="25" height="25" viewBox="0 0 25 25" fill="none" xmlns="http://www.w3.org/2000/svg">
<path d="M21.86 4.69922H3.15001C2.07306 4.69922 1.20001 5.57226 1.20001 6.64922V18.2492C1.20001 19.3262 2.07306 20.1992 3.15001 20.1992H21.86C22.937 20.1992 23.81 19.3262 23.81 18.2492V6.64922C23.81 5.57226 22.937 4.69922 21.86 4.69922Z" stroke="#1D1D1B" stroke-miterlimit="10"/>
<path d="M19.77 17.9601C20.8415 17.9601 21.71 17.0915 21.71 16.0201C21.71 14.9486 20.8415 14.0801 19.77 14.0801C18.6986 14.0801 17.83 14.9486 17.83 16.0201C17.83 17.0915 18.6986 17.9601 19.77 17.9601Z" stroke="#1D1D1B" stroke-miterlimit="10"/>
<path d="M17.78 16.0008C17.7805 15.7261 17.8396 15.4546 17.9534 15.2046C18.0672 14.9545 18.2331 14.7316 18.44 14.5508C18.0881 14.228 17.6276 14.0495 17.15 14.0508C16.8331 14.0486 16.5205 14.1236 16.2391 14.2694C15.9578 14.4152 15.7162 14.6273 15.5352 14.8875C15.3543 15.1477 15.2395 15.448 15.2008 15.7625C15.1621 16.077 15.2006 16.3962 15.313 16.6925C15.4254 16.9888 15.6084 17.2532 15.846 17.4629C16.0836 17.6726 16.3687 17.8212 16.6767 17.8959C16.9846 17.9705 17.3061 17.969 17.6134 17.8915C17.9206 17.814 18.2044 17.6627 18.44 17.4508C18.2336 17.2696 18.0681 17.0467 17.9543 16.7967C17.8405 16.5467 17.7811 16.2755 17.78 16.0008V16.0008Z" stroke="#1D1D1B" stroke-miterlimit="10"/>
<path d="M1.20001 8.24023H23.8" stroke="#1D1D1B" stroke-miterlimit="10"/>
<path d="M1.20001 10.6309H23.8" stroke="#1D1D1B" stroke-miterlimit="10"/>
</svg>
