<svg width="25" height="25" viewBox="0 0 25 25" fill="none" xmlns="http://www.w3.org/2000/svg">
<path d="M6.59998 13.9395L14.81 14.0595" stroke="#1E1E1C" stroke-miterlimit="10"/>
<path d="M10.74 12.5797C11.4027 12.5797 11.94 12.0424 11.94 11.3797C11.94 10.7169 11.4027 10.1797 10.74 10.1797C10.0772 10.1797 9.53998 10.7169 9.53998 11.3797C9.53998 12.0424 10.0772 12.5797 10.74 12.5797Z" stroke="#1E1E1C" stroke-miterlimit="10"/>
<path d="M20.9 5.38047C21.5628 5.38047 22.1 4.84321 22.1 4.18047C22.1 3.51773 21.5628 2.98047 20.9 2.98047C20.2373 2.98047 19.7 3.51773 19.7 4.18047C19.7 4.84321 20.2373 5.38047 20.9 5.38047Z" stroke="#1E1E1C" stroke-miterlimit="10"/>
<path d="M10.66 17.8199C11.3228 17.8199 11.86 17.2827 11.86 16.6199C11.86 15.9572 11.3228 15.4199 10.66 15.4199C9.99728 15.4199 9.46002 15.9572 9.46002 16.6199C9.46002 17.2827 9.99728 17.8199 10.66 17.8199Z" stroke="#1E1E1C" stroke-miterlimit="10"/>
<path d="M12.76 1.48031L1.46 12.7803C1.07468 13.1665 0.858276 13.6898 0.858276 14.2353C0.858276 14.7809 1.07468 15.3041 1.46 15.6903L9.34 23.5703C9.52696 23.7686 9.75247 23.9265 10.0027 24.0345C10.2529 24.1424 10.5225 24.1981 10.795 24.1981C11.0675 24.1981 11.3371 24.1424 11.5873 24.0345C11.8375 23.9265 12.063 23.7686 12.25 23.5703L23.54 12.2803C23.7326 12.0916 23.885 11.8658 23.9881 11.6166C24.0913 11.3674 24.1429 11.1 24.14 10.8303V1.64031C24.14 1.42283 24.0536 1.21426 23.8998 1.06048C23.746 0.906705 23.5375 0.820313 23.32 0.820312L14.2 0.880313C13.6605 0.886964 13.1446 1.10196 12.76 1.48031V1.48031Z" stroke="#1E1E1C" stroke-miterlimit="10"/>
</svg>
