<svg width="24" height="24" viewBox="0 0 24 24" fill="none" xmlns="http://www.w3.org/2000/svg">
<path d="M4 16.001H9.612L8.489 19.368C8.287 19.976 8.389 20.65 8.764 21.17C9.139 21.69 9.747 22.001 10.388 22.001H12C12.297 22.001 12.578 21.869 12.769 21.641L17.469 16.001H20C21.103 16.001 22 15.104 22 14.001V5.00098C22 3.89798 21.103 3.00098 20 3.00098H6.693C6.28611 3.00233 5.88921 3.12714 5.55478 3.3589C5.22035 3.59066 4.96413 3.91847 4.82 4.29898L2.063 11.65C2.02114 11.7623 1.9998 11.8811 2 12.001V14.001C2 15.104 2.897 16.001 4 16.001ZM20 14.001H18V5.00098H20V14.001ZM4 12.182L6.693 5.00098H16V14.639L11.532 20.001H10.386L11.948 15.318C11.9987 15.1677 12.0129 15.0074 11.9893 14.8505C11.9657 14.6937 11.905 14.5447 11.8123 14.4159C11.7197 14.2872 11.5976 14.1824 11.4564 14.1102C11.3151 14.0381 11.1586 14.0006 11 14.001H4V12.182Z" fill="#3E77AA"/>
</svg>
