<svg width="30" height="30" viewBox="0 0 30 30" fill="none" xmlns="http://www.w3.org/2000/svg">
<g clip-path="url(#clip0_109_11608)">
<path d="M14.998 28.1386L2.33131 15.472C-0.777103 12.3636 -0.777103 7.30572 2.33131 4.19668C3.83706 2.69102 5.83906 1.86133 7.96872 1.86133C10.0984 1.86133 12.101 2.69102 13.6067 4.19668L14.998 5.58799L16.3893 4.19668C17.8949 2.69102 19.8976 1.86133 22.0272 1.86133C24.1569 1.86133 26.1584 2.69102 27.6646 4.19668C29.1709 5.70234 30 7.70497 30 9.83463C30 11.9643 29.1703 13.9663 27.6646 15.472L14.998 28.1386ZM7.96872 3.01691C6.1476 3.01691 4.43562 3.72641 3.14833 5.0137C0.490589 7.67207 0.490589 11.9968 3.14833 14.6551L14.9985 26.5048L26.8476 14.6551C28.1355 13.3673 28.8444 11.6558 28.8444 9.83472C28.8444 8.0136 28.1349 6.30162 26.8476 5.0137C25.5598 3.72587 23.8484 3.01691 22.0272 3.01691C20.2061 3.01691 18.4941 3.72641 17.2062 5.0137L14.998 7.22194L12.7897 5.0137C11.5018 3.72641 9.78984 3.01691 7.96872 3.01691Z" fill="#74789F"/>
</g>
<defs>
<clipPath id="clip0_109_11608">
<rect width="30" height="30" fill="white"/>
</clipPath>
</defs>
</svg>
