<svg width="20" height="20" viewBox="0 0 20 20" fill="none" xmlns="http://www.w3.org/2000/svg">
<path d="M16.2398 12L12.9068 15.136C12.859 15.181 12.8205 15.2351 12.7936 15.295C12.7667 15.3549 12.7518 15.4195 12.7499 15.4852C12.7479 15.5508 12.7589 15.6162 12.7822 15.6776C12.8056 15.739 12.8407 15.7952 12.8858 15.843C12.9308 15.8908 12.9848 15.9293 13.0448 15.9562C13.1047 15.9831 13.1693 15.998 13.2349 15.9999C13.3006 16.0019 13.366 15.9909 13.4274 15.9676C13.4888 15.9442 13.545 15.909 13.5928 15.864L17.8428 11.864C17.8924 11.8173 17.932 11.7608 17.959 11.6982C17.9861 11.6357 18 11.5682 18 11.5C18 11.4318 17.9861 11.3643 17.959 11.3018C17.932 11.2392 17.8924 11.1827 17.8428 11.136L13.5928 7.136C13.545 7.09096 13.4888 7.05577 13.4274 7.03245C13.366 7.00913 13.3006 6.99813 13.2349 7.00008C13.1693 7.00203 13.1047 7.01689 13.0448 7.04381C12.9848 7.07074 12.9308 7.1092 12.8858 7.157C12.8407 7.2048 12.8056 7.26101 12.7822 7.32241C12.7589 7.38381 12.7479 7.4492 12.7499 7.51485C12.7518 7.5805 12.7667 7.64512 12.7936 7.70503C12.8205 7.76494 12.859 7.81896 12.9068 7.864L16.2398 11H4.99979C4.46936 11 3.96065 10.7893 3.58558 10.4142C3.2105 10.0391 2.99979 9.53043 2.99979 9V4.5C2.99979 4.36739 2.94711 4.24021 2.85334 4.14645C2.75957 4.05268 2.6324 4 2.49979 4C2.36718 4 2.24 4.05268 2.14623 4.14645C2.05247 4.24021 1.99979 4.36739 1.99979 4.5V9C1.99979 9.79565 2.31586 10.5587 2.87847 11.1213C3.44108 11.6839 4.20414 12 4.99979 12H16.2398Z" fill="#3E77AA"/>
</svg>
