<svg width="25" height="25" viewBox="0 0 25 25" fill="none" xmlns="http://www.w3.org/2000/svg">
<path d="M20.88 1.65039H3.7C2.65618 1.65039 1.81 2.49657 1.81 3.54039V21.4604C1.81 22.5042 2.65618 23.3504 3.7 23.3504H20.88C21.9238 23.3504 22.77 22.5042 22.77 21.4604V3.54039C22.77 2.49657 21.9238 1.65039 20.88 1.65039Z" stroke="#1D1D1B" stroke-miterlimit="10" stroke-linecap="round"/>
<path d="M7.60999 7.46094H19.98" stroke="#1D1D1B" stroke-miterlimit="10" stroke-linecap="round"/>
<path d="M7.60999 12.3691H19.98" stroke="#1D1D1B" stroke-miterlimit="10" stroke-linecap="round"/>
<path d="M7.60999 17.2793H19.98" stroke="#1D1D1B" stroke-miterlimit="10" stroke-linecap="round"/>
<path d="M5.39003 8.26016C5.83185 8.26016 6.19003 7.90198 6.19003 7.46016C6.19003 7.01833 5.83185 6.66016 5.39003 6.66016C4.9482 6.66016 4.59003 7.01833 4.59003 7.46016C4.59003 7.90198 4.9482 8.26016 5.39003 8.26016Z" fill="#1D1D1B"/>
<path d="M5.39003 13.1703C5.83185 13.1703 6.19003 12.8121 6.19003 12.3703C6.19003 11.9285 5.83185 11.5703 5.39003 11.5703C4.9482 11.5703 4.59003 11.9285 4.59003 12.3703C4.59003 12.8121 4.9482 13.1703 5.39003 13.1703Z" fill="#1D1D1B"/>
<path d="M5.39003 18.0805C5.83185 18.0805 6.19003 17.7223 6.19003 17.2805C6.19003 16.8386 5.83185 16.4805 5.39003 16.4805C4.9482 16.4805 4.59003 16.8386 4.59003 17.2805C4.59003 17.7223 4.9482 18.0805 5.39003 18.0805Z" fill="#1D1D1B"/>
</svg>
