<svg width="16" height="16" viewBox="0 0 16 16" fill="none" xmlns="http://www.w3.org/2000/svg">
<path fill-rule="evenodd" clip-rule="evenodd" d="M1.00106 8.00034C1.00106 8.13295 1.05374 8.26013 1.14751 8.3539C1.24127 8.44766 1.36845 8.50034 1.50106 8.50034L13.2941 8.50035L10.1471 11.6463C10.1006 11.6928 10.0637 11.748 10.0385 11.8088C10.0134 11.8695 10.0004 11.9346 10.0004 12.0003C10.0004 12.0661 10.0134 12.1312 10.0385 12.1919C10.0637 12.2527 10.1006 12.3079 10.1471 12.3543C10.1935 12.4008 10.2487 12.4377 10.3095 12.4629C10.3702 12.488 10.4353 12.501 10.5011 12.501C10.5668 12.501 10.6319 12.488 10.6926 12.4629C10.7534 12.4377 10.8086 12.4008 10.8551 12.3543L14.8551 8.35435C14.9016 8.3079 14.9386 8.25272 14.9638 8.19198C14.989 8.13123 15.002 8.06611 15.002 8.00035C15.002 7.93458 14.989 7.86946 14.9638 7.80871C14.9386 7.74797 14.9016 7.69279 14.8551 7.64635L10.8551 3.64634C10.8086 3.59986 10.7534 3.56298 10.6926 3.53782C10.6319 3.51266 10.5668 3.49971 10.5011 3.49971C10.4353 3.49971 10.3702 3.51266 10.3095 3.53782C10.2487 3.56298 10.1935 3.59986 10.1471 3.64634C10.1006 3.69283 10.0637 3.74802 10.0385 3.80876C10.0134 3.8695 10.0004 3.9346 10.0004 4.00034C10.0004 4.06609 10.0134 4.13119 10.0385 4.19193C10.0637 4.25267 10.1006 4.30786 10.1471 4.35434L13.2941 7.50035L1.50106 7.50034C1.36845 7.50034 1.24127 7.55302 1.14751 7.64679C1.05374 7.74056 1.00106 7.86774 1.00106 8.00034Z" fill="#98BE2A"/>
</svg>
