<svg width="25" height="25" viewBox="0 0 25 25" fill="none" xmlns="http://www.w3.org/2000/svg">
<path d="M23.61 9.52002H22.51C22.2448 9.52002 21.9904 9.62538 21.8029 9.81291C21.6154 10.0004 21.51 10.2548 21.51 10.52V13.19H3.44V10.52C3.44032 10.2632 3.34186 10.0162 3.165 9.83002C2.98815 9.64386 2.74646 9.53286 2.49 9.52002H1.39C1.13355 9.53286 0.891858 9.64386 0.715003 9.83002C0.538148 10.0162 0.439682 10.2632 0.440003 10.52V15.4C0.440003 15.6652 0.54536 15.9196 0.732896 16.1071C0.920433 16.2947 1.17479 16.4 1.44 16.4H2.53V17.88C2.5326 18.1073 2.62404 18.3245 2.78476 18.4853C2.94549 18.646 3.16272 18.7374 3.39 18.74H4.61C4.83728 18.7374 5.05452 18.646 5.21524 18.4853C5.37596 18.3245 5.46741 18.1073 5.47 17.88V16.4H19.57V17.88C19.57 18.1064 19.6592 18.3236 19.8183 18.4846C19.9775 18.6456 20.1937 18.7374 20.42 18.74H21.65C21.8764 18.7374 22.0925 18.6456 22.2517 18.4846C22.4108 18.3236 22.5 18.1064 22.5 17.88V16.4H23.61C23.8665 16.3872 24.1081 16.2762 24.285 16.09C24.4619 15.9039 24.5603 15.6568 24.56 15.4V10.52C24.5603 10.2632 24.4619 10.0162 24.285 9.83002C24.1081 9.64386 23.8665 9.53286 23.61 9.52002Z" stroke="#1E1E1C" stroke-width="0.5" stroke-miterlimit="10"/>
<path d="M21.56 13.1899H13.3C13.1941 13.19 13.0892 13.1689 12.9915 13.1281C12.8938 13.0873 12.8052 13.0275 12.7308 12.9521C12.6563 12.8768 12.5976 12.7874 12.558 12.6892C12.5184 12.5909 12.4987 12.4858 12.5 12.3799V6.37995C12.4987 6.27405 12.5184 6.16895 12.558 6.07073C12.5976 5.97251 12.6563 5.88313 12.7308 5.80779C12.8052 5.73244 12.8938 5.67261 12.9915 5.63178C13.0892 5.59096 13.1941 5.56994 13.3 5.56995H21.82C21.9259 5.56994 22.0308 5.59096 22.1285 5.63178C22.2262 5.67261 22.3148 5.73244 22.3893 5.80779C22.4637 5.88313 22.5224 5.97251 22.562 6.07073C22.6016 6.16895 22.6213 6.27405 22.62 6.37995V9.47995" stroke="#1E1E1C" stroke-width="0.5" stroke-miterlimit="10"/>
<path d="M2.38001 9.47004V6.35004C2.37868 6.24414 2.3984 6.13904 2.43801 6.04082C2.47762 5.9426 2.53634 5.85323 2.61076 5.77788C2.68517 5.70253 2.77381 5.64271 2.87153 5.60188C2.96925 5.56105 3.0741 5.54003 3.18001 5.54004H11.7C11.8059 5.54003 11.9108 5.56105 12.0085 5.60188C12.1062 5.64271 12.1948 5.70253 12.2693 5.77788C12.3437 5.85323 12.4024 5.9426 12.442 6.04082C12.4816 6.13904 12.5013 6.24414 12.5 6.35004V12.35C12.5013 12.4559 12.4816 12.561 12.442 12.6593C12.4024 12.7575 12.3437 12.8469 12.2693 12.9222C12.1948 12.9975 12.1062 13.0574 12.0085 13.0982C11.9108 13.139 11.8059 13.16 11.7 13.16H3.44001" stroke="#1E1E1C" stroke-width="0.5" stroke-miterlimit="10"/>
<path d="M4.65997 15.51H20.34" stroke="#1E1E1C" stroke-width="0.5" stroke-miterlimit="10" stroke-linecap="round"/>
</svg>
