<svg width="25" height="25" viewBox="0 0 25 25" fill="none" xmlns="http://www.w3.org/2000/svg">
<path d="M2.19999 19.54V15.76L0.429993 12.68L2.19999 9.35998V5.57998L5.39999 4.38998L9.06999 0.47998L12.71 1.66998L16.29 0.47998L18.66 3.32998L22.68 5.45998V9.23998L24.57 12.44L23.04 15.87L23.15 19.07L19.84 20.85L16.64 24.52L12.71 23.8L9.18999 24.52L5.86999 21.44L2.19999 19.54Z" stroke="#1E1E1C" stroke-width="0.5" stroke-miterlimit="10"/>
<path d="M7.13 17.41L17.39 7.46997" stroke="#1E1E1C" stroke-width="0.5" stroke-miterlimit="10"/>
<path d="M9.07999 11.26C10.2343 11.26 11.17 10.3243 11.17 9.17002C11.17 8.01574 10.2343 7.08002 9.07999 7.08002C7.92572 7.08002 6.98999 8.01574 6.98999 9.17002C6.98999 10.3243 7.92572 11.26 9.07999 11.26Z" stroke="#1E1E1C" stroke-width="0.5" stroke-miterlimit="10"/>
<path d="M15.92 18.31C17.0743 18.31 18.01 17.3743 18.01 16.22C18.01 15.0657 17.0743 14.13 15.92 14.13C14.7657 14.13 13.83 15.0657 13.83 16.22C13.83 17.3743 14.7657 18.31 15.92 18.31Z" stroke="#1E1E1C" stroke-width="0.5" stroke-miterlimit="10"/>
</svg>
