<svg width="25" height="25" viewBox="0 0 25 25" fill="none" xmlns="http://www.w3.org/2000/svg">
<g clip-path="url(#clip0_14_147)">
<path d="M24.0071 0.99787C24.4253 1.41608 24.6602 1.98328 24.6602 2.57472C24.6602 3.16615 24.4253 3.73336 24.0071 4.15157L23.3707 4.78796C23.1213 5.03739 22.783 5.17751 22.4302 5.17751C22.0775 5.17751 21.7392 5.03739 21.4898 4.78796L20.217 3.51517C19.9676 3.26575 19.8274 2.92746 19.8274 2.57472C19.8274 2.22198 19.9676 1.88369 20.217 1.63426L20.8534 0.997869C21.2716 0.579663 21.8388 0.344717 22.4302 0.344717C23.0217 0.344717 23.5889 0.579664 24.0071 0.99787V0.99787Z" stroke="#1E1E1C" stroke-width="0.5" stroke-linecap="round" stroke-linejoin="round"/>
<path d="M17.18 14.68L7.77998 24.08C7.59423 24.2659 7.37365 24.4134 7.13086 24.5141C6.88806 24.6147 6.62781 24.6665 6.36498 24.6665C6.10215 24.6665 5.84189 24.6147 5.5991 24.5141C5.3563 24.4134 5.13572 24.2659 4.94998 24.08L0.949977 20.08C0.764024 19.8942 0.616506 19.6737 0.515857 19.4309C0.415209 19.1881 0.363403 18.9278 0.363403 18.665C0.363403 18.4021 0.415209 18.1419 0.515857 17.8991C0.616506 17.6563 0.764024 17.4357 0.949977 17.25L10.35 7.84998" stroke="#1E1E1C" stroke-width="0.5" stroke-linecap="round" stroke-linejoin="round"/>
<path d="M10.32 7.82C10.32 7.82 11.51 6.68 14.55 6.49C15.3148 6.43903 16.0402 6.13264 16.61 5.62L19.61 2.88" stroke="#1E1E1C" stroke-width="0.5" stroke-linecap="round" stroke-linejoin="round"/>
<path d="M17.18 14.66C17.18 14.66 18.39 13.5 18.51 10.43C18.5539 9.66357 18.8612 8.93585 19.38 8.37L22.12 5.37" stroke="#1E1E1C" stroke-width="0.5" stroke-linecap="round" stroke-linejoin="round"/>
<path d="M17.46 14.13L15.18 11.85C15.3176 11.5365 15.3574 11.1888 15.2941 10.8524C15.2309 10.516 15.0675 10.2065 14.8255 9.96446C14.5834 9.7224 14.2739 9.55906 13.9375 9.49581C13.6011 9.43256 13.2534 9.47235 12.94 9.60996L10.79 7.45996" stroke="#1E1E1C" stroke-width="0.5" stroke-linecap="round" stroke-linejoin="round"/>
<path d="M9.10999 9L11.34 11.23C11.2289 11.5343 11.207 11.8639 11.2769 12.1802C11.3469 12.4965 11.5057 12.7862 11.7348 13.0152C11.9638 13.2443 12.2535 13.4031 12.5698 13.473C12.8861 13.543 13.2157 13.5211 13.52 13.41L16 15.89" stroke="#1E1E1C" stroke-width="0.5" stroke-linecap="round" stroke-linejoin="round"/>
<path d="M6.92999 11.21L13.79 18.07" stroke="#1E1E1C" stroke-width="0.5" stroke-linecap="round" stroke-linejoin="round"/>
<path d="M1.31 16.83L8.04 23.55" stroke="#1E1E1C" stroke-width="0.5" stroke-linecap="round" stroke-linejoin="round"/>
<path d="M6.77002 15.08L9.92002 18.23" stroke="#1E1E1C" stroke-width="0.5" stroke-linecap="round" stroke-linejoin="round"/>
<path d="M3.78003 15.97L4.57003 16.75" stroke="#1E1E1C" stroke-width="0.5" stroke-linecap="round" stroke-linejoin="round"/>
<path d="M5.40002 17.58L8.73002 20.92" stroke="#1E1E1C" stroke-width="0.5" stroke-linecap="round" stroke-linejoin="round"/>
</g>
<defs>
<clipPath id="clip0_14_147">
<rect width="25" height="25" fill="white"/>
</clipPath>
</defs>
</svg>
