<svg width="25" height="25" viewBox="0 0 25 25" fill="none" xmlns="http://www.w3.org/2000/svg">
<path d="M6.24003 3.69995H2.12003C1.51804 3.69995 1.03003 4.18796 1.03003 4.78995V20.7099C1.03003 21.3119 1.51804 21.7999 2.12003 21.7999H6.24003C6.84202 21.7999 7.33003 21.3119 7.33003 20.7099V4.78995C7.33003 4.18796 6.84202 3.69995 6.24003 3.69995Z" stroke="#1D1D1B" stroke-width="0.5" stroke-miterlimit="10"/>
<path d="M5.07998 5.18005H3.53998C2.98769 5.18005 2.53998 5.62777 2.53998 6.18005V14.1801C2.53998 14.7323 2.98769 15.1801 3.53998 15.1801H5.07998C5.63226 15.1801 6.07998 14.7323 6.07998 14.1801V6.18005C6.07998 5.62777 5.63226 5.18005 5.07998 5.18005Z" stroke="#1D1D1B" stroke-width="0.5" stroke-miterlimit="10"/>
<path d="M1.03003 17.52H7.33003" stroke="#1D1D1B" stroke-width="0.5" stroke-miterlimit="10"/>
<path d="M1.03003 19.48H7.33003" stroke="#1D1D1B" stroke-width="0.5" stroke-miterlimit="10"/>
<path d="M12.54 3.69995H8.42002C7.81803 3.69995 7.33002 4.18796 7.33002 4.78995V20.7099C7.33002 21.3119 7.81803 21.7999 8.42002 21.7999H12.54C13.142 21.7999 13.63 21.3119 13.63 20.7099V4.78995C13.63 4.18796 13.142 3.69995 12.54 3.69995Z" stroke="#1D1D1B" stroke-width="0.5" stroke-miterlimit="10"/>
<path d="M11.38 5.18005H9.84003C9.28774 5.18005 8.84003 5.62777 8.84003 6.18005V14.1801C8.84003 14.7323 9.28774 15.1801 9.84003 15.1801H11.38C11.9323 15.1801 12.38 14.7323 12.38 14.1801V6.18005C12.38 5.62777 11.9323 5.18005 11.38 5.18005Z" stroke="#1D1D1B" stroke-width="0.5" stroke-miterlimit="10"/>
<path d="M7.33002 17.52H13.63" stroke="#1D1D1B" stroke-width="0.5" stroke-miterlimit="10"/>
<path d="M7.33002 19.48H13.63" stroke="#1D1D1B" stroke-width="0.5" stroke-miterlimit="10"/>
<path d="M18.4025 3.22797L14.4278 4.31236C13.847 4.4708 13.5047 5.07005 13.6631 5.65081L17.8532 21.0095C18.0117 21.5903 18.6109 21.9326 19.1917 21.7742L23.1664 20.6898C23.7472 20.5313 24.0896 19.9321 23.9311 19.3513L19.741 3.99265C19.5825 3.41189 18.9833 3.06953 18.4025 3.22797Z" stroke="#1D1D1B" stroke-width="0.5" stroke-miterlimit="10"/>
<path d="M17.6727 4.96795L16.187 5.37328C15.6542 5.51864 15.3401 6.0684 15.4855 6.60122L17.5911 14.3191C17.7364 14.852 18.2862 15.1661 18.819 15.0207L20.3047 14.6154C20.8375 14.47 21.1516 13.9202 21.0063 13.3874L18.9007 5.66949C18.7553 5.13668 18.2055 4.82259 17.6727 4.96795Z" stroke="#1D1D1B" stroke-width="0.5" stroke-miterlimit="10"/>
<path d="M17.02 17.94L23.1 16.28" stroke="#1D1D1B" stroke-width="0.5" stroke-miterlimit="10"/>
<path d="M17.53 19.82L23.61 18.16" stroke="#1D1D1B" stroke-width="0.5" stroke-miterlimit="10"/>
</svg>
