<svg width="25" height="25" viewBox="0 0 25 25" fill="none" xmlns="http://www.w3.org/2000/svg">
<path d="M20.12 24.4399V5.68995C20.12 4.33112 19.5809 3.02779 18.621 2.06602C17.6611 1.10424 16.3588 0.562595 15 0.559946V0.559946C14.3255 0.558631 13.6573 0.690353 13.0337 0.94757C12.4102 1.20479 11.8435 1.58245 11.3661 2.05895C10.8886 2.53544 10.5099 3.10142 10.2514 3.72447C9.99301 4.34752 9.85998 5.01542 9.85999 5.68995V7.46995" stroke="#1E1E1C" stroke-width="0.5" stroke-miterlimit="10"/>
<path d="M3.29001 12.87H16.44V14C16.4428 14.3874 16.2935 14.7605 16.0243 15.039C15.755 15.3176 15.3873 15.4795 15 15.49H4.76001C4.56565 15.4887 4.37346 15.4491 4.1944 15.3735C4.01534 15.2979 3.85292 15.1878 3.71641 15.0495C3.57991 14.9111 3.472 14.7472 3.39883 14.5671C3.32567 14.3871 3.28869 14.1944 3.29001 14V12.87Z" stroke="#1E1E1C" stroke-width="0.5" stroke-miterlimit="10"/>
<path d="M15.89 12.87C15.1 9.69001 12.74 7.39001 10 7.39001C7.26 7.39001 4.83 9.69001 4 12.87H15.89Z" stroke="#1E1E1C" stroke-width="0.5" stroke-miterlimit="10"/>
<path d="M6.07001 16.99V18.25" stroke="#1E1E1C" stroke-width="0.5" stroke-miterlimit="10"/>
<path d="M9.85999 16.99V18.25" stroke="#1E1E1C" stroke-width="0.5" stroke-miterlimit="10"/>
<path d="M13.65 16.99V18.25" stroke="#1E1E1C" stroke-width="0.5" stroke-miterlimit="10"/>
<path d="M6.07001 19.75V21.02" stroke="#1E1E1C" stroke-width="0.5" stroke-miterlimit="10"/>
<path d="M9.85999 19.75V21.02" stroke="#1E1E1C" stroke-width="0.5" stroke-miterlimit="10"/>
<path d="M13.65 19.75V21.02" stroke="#1E1E1C" stroke-width="0.5" stroke-miterlimit="10"/>
</svg>
