<svg width="25" height="25" viewBox="0 0 25 25" fill="none" xmlns="http://www.w3.org/2000/svg">
<path d="M11 15.87H2.8C1.87216 15.87 1.12 16.6222 1.12 17.55V20.93C1.12 21.8578 1.87216 22.61 2.8 22.61H11C11.9278 22.61 12.68 21.8578 12.68 20.93V17.55C12.68 16.6222 11.9278 15.87 11 15.87Z" stroke="#1E1E1C" stroke-width="0.5" stroke-miterlimit="10"/>
<path d="M9.15998 8.57995H12.24V2.37995H3.56998C2.72458 2.3584 1.90503 2.67237 1.29042 3.25325C0.675813 3.83413 0.316131 4.63468 0.289978 5.47995C0.316131 6.32521 0.675813 7.12576 1.29042 7.70664C1.90503 8.28752 2.72458 8.60149 3.56998 8.57995H5.42998" stroke="#1E1E1C" stroke-width="0.5" stroke-miterlimit="10"/>
<path d="M14.57 7.60997L12.24 8.20997V2.83997L14.57 3.59997V7.60997Z" stroke="#1E1E1C" stroke-width="0.5" stroke-miterlimit="10"/>
<path d="M17.81 7.22001L14.57 7.46001V3.76001L17.81 4.00001C18.81 4.00001 19.66 5.61001 19.66 5.61001C19.66 5.61001 18.84 7.22001 17.81 7.22001Z" stroke="#1E1E1C" stroke-width="0.5" stroke-miterlimit="10"/>
<path d="M19.66 5.60999H24.71" stroke="#1E1E1C" stroke-width="0.5" stroke-miterlimit="10" stroke-linecap="round"/>
<path d="M3.39001 15.87C3.39001 15.87 3.12001 11 5.25001 8.57996" stroke="#1E1E1C" stroke-width="0.5" stroke-miterlimit="10"/>
<path d="M7.45001 15.87C7.45001 15.87 7.68001 12 8.39001 11.38H9.16001C9.16001 11.38 8.23001 8.57996 9.16001 8.57996" stroke="#1E1E1C" stroke-width="0.5" stroke-linejoin="round"/>
</svg>
