<svg width="25" height="25" viewBox="0 0 25 25" fill="none" xmlns="http://www.w3.org/2000/svg">
<g clip-path="url(#clip0_14_92)">
<path d="M10.74 12.15C7.97708 13.0956 5.31418 14.3115 2.79001 15.78C2.39363 16.0184 1.97077 16.2097 1.53001 16.35V16.35C1.43076 16.3676 1.32855 16.3559 1.23582 16.3164C1.14308 16.2769 1.06382 16.2114 1.00767 16.1277C0.951521 16.044 0.920903 15.9458 0.919542 15.845C0.918181 15.7442 0.946136 15.6452 1.00001 15.56V15.56C1.4304 14.9384 1.9266 14.3651 2.48001 13.85V13.85C2.68084 13.6628 2.94544 13.5591 3.22001 13.56H3.75001L8.30001 10.75L8.57001 10.43C9.00035 9.94028 9.56844 9.59177 10.2 9.43002L10.78 9.27002L10.74 12.15Z" stroke="#1E1E1C" stroke-width="0.5" stroke-linejoin="round"/>
<path d="M14.66 14.53L12.08 23.6C12.0552 23.6883 12.0552 23.7817 12.08 23.87V23.87C12.1146 24.0284 12.1913 24.1744 12.302 24.2928C12.4127 24.4112 12.5533 24.4974 12.709 24.5425C12.8647 24.5876 13.0296 24.5897 13.1865 24.5488C13.3433 24.5079 13.4862 24.4254 13.6 24.31L13.68 24.23L15.27 20.82V20.37C15.2696 19.9563 15.4229 19.5572 15.7 19.25L16.26 18.64V18.13C16.2547 17.9155 16.2979 17.7025 16.3861 17.5069C16.4744 17.3113 16.6056 17.138 16.77 17L17.24 16.61C17.3651 16.5138 17.4656 16.3894 17.5334 16.2468C17.6012 16.1043 17.6343 15.9478 17.63 15.79V15C17.6301 14.9125 17.6124 14.8259 17.5777 14.7455C17.5431 14.6651 17.4923 14.5927 17.4286 14.5327C17.3649 14.4727 17.2895 14.4265 17.2072 14.3968C17.1249 14.367 17.0373 14.3545 16.95 14.36L14.66 14.53Z" stroke="#1E1E1C" stroke-width="0.5" stroke-miterlimit="10"/>
<path d="M10.74 9.43002C10.74 9.43002 14.6 7.94001 15.16 6.89001H16.38L18.8 10.63C18.8886 10.7754 18.9304 10.9445 18.9197 11.1145C18.909 11.2844 18.8462 11.4469 18.74 11.58C18.4587 11.9499 18.0716 12.2254 17.63 12.37H14.53C14.0441 11.8766 13.4074 11.5595 12.7209 11.4689C12.0343 11.3784 11.3372 11.5195 10.74 11.87V9.43002Z" stroke="#1E1E1C" stroke-width="0.5" stroke-miterlimit="10"/>
<path d="M14.53 12.3699L14.91 14.5199L16.97 14.3799L18.04 12.1899" stroke="#1E1E1C" stroke-width="0.5" stroke-miterlimit="10"/>
<path d="M16.15 6.88004C16.15 6.88004 20.37 3.72004 20.3 0.420044C20.3 0.420044 23.14 5.42004 17.4 8.21004" stroke="#1E1E1C" stroke-width="0.5" stroke-miterlimit="10"/>
<path d="M17.63 8.80005C17.63 8.80005 23.51 7.93005 24.07 2.93005C24.07 2.93005 25.19 8.11005 18.95 10.9801" stroke="#1E1E1C" stroke-width="0.5" stroke-miterlimit="10"/>
</g>
<defs>
<clipPath id="clip0_14_92">
<rect width="25" height="25" fill="white"/>
</clipPath>
</defs>
</svg>
