<svg width="25" height="25" viewBox="0 0 25 25" fill="none" xmlns="http://www.w3.org/2000/svg">
<path d="M17.22 1.65002C16.8986 2.66168 16.256 3.54094 15.3898 4.1545C14.5236 4.76806 13.481 5.08246 12.42 5.05002" stroke="#1E1E1C" stroke-width="0.5" stroke-miterlimit="10"/>
<path d="M12.4 24.15C14.5698 24.2576 16.7449 24.174 18.9 23.9L19.2 10.48L20.56 11.56L23.88 8.16996L20.35 3.16996L15.56 0.829956C15.3401 1.49798 14.9293 2.08696 14.3784 2.52414C13.8275 2.96132 13.1606 3.22755 12.46 3.28996" stroke="#1E1E1C" stroke-width="0.5" stroke-miterlimit="10"/>
<path d="M19.2 10.4801C19.2 10.4801 18.76 5.48005 20.35 3.18005" stroke="#1E1E1C" stroke-width="0.5" stroke-miterlimit="10"/>
<path d="M7.78003 1.65002C8.10146 2.66168 8.74399 3.54094 9.61019 4.1545C10.4764 4.76806 11.519 5.08246 12.58 5.05002" stroke="#1E1E1C" stroke-width="0.5" stroke-miterlimit="10"/>
<path d="M12.6 24.15C10.4302 24.2576 8.25512 24.174 6.1 23.9L5.8 10.48L4.44 11.56L1.12 8.16996L4.65 3.16996L9.43999 0.829956C9.65993 1.49798 10.0707 2.08696 10.6216 2.52414C11.1726 2.96132 11.8395 3.22755 12.54 3.28996" stroke="#1E1E1C" stroke-width="0.5" stroke-miterlimit="10"/>
<path d="M5.80002 10.4801C5.80002 10.4801 6.24002 5.48005 4.65002 3.18005" stroke="#1E1E1C" stroke-width="0.5" stroke-miterlimit="10"/>
</svg>
