<svg width="25" height="25" viewBox="0 0 25 25" fill="none" xmlns="http://www.w3.org/2000/svg">
<g clip-path="url(#clip0_14_133)">
<path d="M2.99997 20.27C3.90803 19.7452 4.65769 18.9852 5.16997 18.07C5.30819 17.7352 5.54582 17.4508 5.85078 17.2553C6.15574 17.0598 6.51335 16.9625 6.87533 16.9767C7.23731 16.9909 7.58622 17.1158 7.87496 17.3345C8.1637 17.5533 8.37836 17.8554 8.48997 18.2C9.41997 20.53 11.69 20.6 11.72 22.03C11.7586 22.3485 11.7109 22.6715 11.5819 22.9653C11.4529 23.2591 11.2473 23.5127 10.9866 23.6998C10.726 23.8869 10.4198 24.0004 10.1002 24.0286C9.78065 24.0568 9.45935 23.9986 9.16997 23.86C8.43207 23.4036 7.58484 23.1544 6.71732 23.1385C5.84981 23.1227 4.99405 23.3408 4.23997 23.77C2.43997 24.88 0.339974 21.72 2.99997 20.27Z" stroke="#1E1E1C" stroke-width="0.5" stroke-miterlimit="10"/>
<path d="M5.43928 16.1084C6.21977 15.8657 6.55724 14.7198 6.19305 13.549C5.82885 12.3783 4.9009 11.6261 4.12041 11.8689C3.33993 12.1116 3.00245 13.2575 3.36665 14.4283C3.73084 15.599 4.65879 16.3512 5.43928 16.1084Z" stroke="#1E1E1C" stroke-width="0.5" stroke-miterlimit="10"/>
<path d="M10.0943 14.6069C10.4904 13.4466 10.1844 12.2919 9.4109 12.0278C8.63735 11.7637 7.68914 12.4902 7.29301 13.6505C6.89687 14.8108 7.20282 15.9656 7.97637 16.2296C8.74991 16.4937 9.69812 15.7672 10.0943 14.6069Z" stroke="#1E1E1C" stroke-width="0.5" stroke-miterlimit="10"/>
<path d="M12.9176 17.6437C13.4212 16.7106 13.3292 15.684 12.712 15.3508C12.0948 15.0177 11.1861 15.504 10.6824 16.4371C10.1787 17.3703 10.2707 18.3968 10.888 18.73C11.5052 19.0631 12.4139 18.5768 12.9176 17.6437Z" stroke="#1E1E1C" stroke-width="0.5" stroke-miterlimit="10"/>
<path d="M2.80855 18.4767C3.41065 18.1169 3.45782 17.0873 2.9139 16.1771C2.36998 15.2668 1.44095 14.8206 0.838855 15.1804C0.236755 15.5401 0.189589 16.5697 0.733506 17.48C1.27742 18.3902 2.20645 18.8365 2.80855 18.4767Z" stroke="#1E1E1C" stroke-width="0.5" stroke-miterlimit="10"/>
<path d="M14.35 9.38004C15.2588 8.85509 16.006 8.09062 16.51 7.17004C16.6523 6.83959 16.8913 6.56 17.1956 6.36811C17.4999 6.17622 17.8552 6.08104 18.2147 6.09511C18.5741 6.10919 18.9209 6.23186 19.2093 6.44696C19.4977 6.66206 19.7141 6.95949 19.83 7.30004C20.76 9.64004 23.04 9.71004 23.06 11.14C23.1072 11.4605 23.0661 11.7877 22.9412 12.0865C22.8162 12.3853 22.612 12.6443 22.3507 12.8357C22.0894 13.027 21.7808 13.1435 21.4582 13.1724C21.1356 13.2014 20.8112 13.1418 20.52 13C19.7802 12.5438 18.9314 12.2947 18.0623 12.2788C17.1933 12.263 16.336 12.481 15.58 12.91C13.83 14 11.74 10.83 14.35 9.38004Z" stroke="#1E1E1C" stroke-width="0.5" stroke-miterlimit="10"/>
<path d="M16.7675 5.15303C17.544 4.90781 17.8753 3.7648 17.5075 2.60003C17.1397 1.43526 16.212 0.689814 15.4355 0.935028C14.659 1.18024 14.3277 2.32326 14.6955 3.48803C15.0633 4.6528 15.991 5.39824 16.7675 5.15303Z" stroke="#1E1E1C" stroke-width="0.5" stroke-miterlimit="10"/>
<path d="M21.5015 3.70978C21.8977 2.54947 21.5917 1.39476 20.8182 1.13067C20.0446 0.866584 19.0964 1.59312 18.7003 2.75343C18.3042 3.91375 18.6101 5.06846 19.3837 5.33255C20.1572 5.59663 21.1054 4.8701 21.5015 3.70978Z" stroke="#1E1E1C" stroke-width="0.5" stroke-miterlimit="10"/>
<path d="M24.3062 6.74304C24.8099 5.80992 24.7178 4.78338 24.1006 4.45021C23.4834 4.11704 22.5747 4.60339 22.071 5.53651C21.5673 6.46963 21.6594 7.49616 22.2766 7.82934C22.8938 8.16251 23.8025 7.67616 24.3062 6.74304Z" stroke="#1E1E1C" stroke-width="0.5" stroke-miterlimit="10"/>
<path d="M14.2086 7.59095C14.8107 7.23118 14.8579 6.20161 14.314 5.29134C13.7701 4.38108 12.841 3.93483 12.2389 4.29461C11.6368 4.65439 11.5897 5.68396 12.1336 6.59422C12.6775 7.50448 13.6065 7.95073 14.2086 7.59095Z" stroke="#1E1E1C" stroke-width="0.5" stroke-miterlimit="10"/>
</g>
<defs>
<clipPath id="clip0_14_133">
<rect width="25" height="25" fill="white"/>
</clipPath>
</defs>
</svg>
