<svg width="25" height="25" viewBox="0 0 25 25" fill="none" xmlns="http://www.w3.org/2000/svg">
<g clip-path="url(#clip0_14_78)">
<path d="M18.62 8.56995H6.37997C2.9779 8.56995 0.219971 11.3279 0.219971 14.7299V14.7399C0.219971 18.142 2.9779 20.8999 6.37997 20.8999H18.62C22.022 20.8999 24.78 18.142 24.78 14.7399V14.7299C24.78 11.3279 22.022 8.56995 18.62 8.56995Z" stroke="#1E1E1C" stroke-width="0.5" stroke-miterlimit="10"/>
<path d="M9.12999 14.08H7.16999V12.12H5.44999V14.08H3.48999V15.8H5.44999V17.76H7.16999V15.8H9.12999V14.08Z" stroke="#1E1E1C" stroke-width="0.5" stroke-miterlimit="10"/>
<path d="M16.57 15.74C17.0174 15.74 17.38 15.3773 17.38 14.93C17.38 14.4826 17.0174 14.12 16.57 14.12C16.1227 14.12 15.76 14.4826 15.76 14.93C15.76 15.3773 16.1227 15.74 16.57 15.74Z" stroke="#1E1E1C" stroke-width="0.5" stroke-miterlimit="10"/>
<path d="M20.71 15.74C21.1574 15.74 21.52 15.3773 21.52 14.93C21.52 14.4826 21.1574 14.12 20.71 14.12C20.2627 14.12 19.9 14.4826 19.9 14.93C19.9 15.3773 20.2627 15.74 20.71 15.74Z" stroke="#1E1E1C" stroke-width="0.5" stroke-miterlimit="10"/>
<path d="M18.65 13.62C19.0974 13.62 19.46 13.2574 19.46 12.81C19.46 12.3626 19.0974 12 18.65 12C18.2027 12 17.84 12.3626 17.84 12.81C17.84 13.2574 18.2027 13.62 18.65 13.62Z" stroke="#1E1E1C" stroke-width="0.5" stroke-miterlimit="10"/>
<path d="M18.65 17.76C19.0974 17.76 19.46 17.3974 19.46 16.95C19.46 16.5027 19.0974 16.14 18.65 16.14C18.2027 16.14 17.84 16.5027 17.84 16.95C17.84 17.3974 18.2027 17.76 18.65 17.76Z" stroke="#1E1E1C" stroke-width="0.5" stroke-miterlimit="10"/>
<path d="M11.42 17.76H9.81V18.47H11.42V17.76Z" fill="#1E1E1C"/>
<path d="M15.09 17.76H13.48V18.47H15.09V17.76Z" fill="#1E1E1C"/>
<path d="M15.67 6.19995H9.33002V8.56995H15.67V6.19995Z" stroke="#1E1E1C" stroke-width="0.5" stroke-miterlimit="10"/>
<path d="M13.11 4.09998H11.71V6.19998H13.11V4.09998Z" fill="#1E1E1C"/>
</g>
<defs>
<clipPath id="clip0_14_78">
<rect width="25" height="25" fill="white"/>
</clipPath>
</defs>
</svg>
