<svg width="25" height="25" viewBox="0 0 25 25" fill="none" xmlns="http://www.w3.org/2000/svg">
<path opacity="0.98" d="M21.74 20.71V18.88H8.84999L0.799988 10.98V13.99L7.50999 20.71H7.47999L5.31999 24.54H7.56999L9.63999 20.71H19.61L21.74 24.54H24.17L21.74 20.71Z" stroke="#1E1E1C" stroke-width="0.5" stroke-miterlimit="10"/>
<path d="M17.13 17.76H10.21L12.46 14.93H17.13C17.504 14.93 17.8626 15.0785 18.127 15.343C18.3915 15.6074 18.54 15.966 18.54 16.34C18.54 16.7149 18.3918 17.0745 18.1277 17.3406C17.8635 17.6066 17.5049 17.7574 17.13 17.76V17.76Z" stroke="#1E1E1C" stroke-width="0.5" stroke-miterlimit="10"/>
<path d="M11.94 15.59L10.22 17.75L4.88 12.42L6.88 10.59C7.06249 10.4297 7.2971 10.3413 7.54 10.3413C7.78291 10.3413 8.01752 10.4297 8.2 10.59L11.92 14.31C12.0725 14.4874 12.158 14.7126 12.1617 14.9464C12.1653 15.1803 12.0869 15.408 11.94 15.59Z" stroke="#1E1E1C" stroke-width="0.5" stroke-miterlimit="10"/>
<path d="M2.59065 8.55584C2.80444 8.34205 3.0944 8.22194 3.39675 8.22194C3.6991 8.22194 3.98906 8.34205 4.20285 8.55584L6.50095 10.8539L4.88874 12.4661L2.59065 10.168C2.37686 9.95425 2.25675 9.66429 2.25675 9.36194C2.25675 9.05959 2.37686 8.76963 2.59065 8.55584V8.55584Z" stroke="#1E1E1C" stroke-width="0.5" stroke-miterlimit="10"/>
<path d="M6.46001 7.87998C7.39889 7.87998 8.16001 7.11886 8.16001 6.17998C8.16001 5.2411 7.39889 4.47998 6.46001 4.47998C5.52113 4.47998 4.76001 5.2411 4.76001 6.17998C4.76001 7.11886 5.52113 7.87998 6.46001 7.87998Z" stroke="#1E1E1C" stroke-width="0.5" stroke-miterlimit="10"/>
<path d="M20.72 4.10999C20.5999 3.0936 20.117 2.15469 19.3601 1.46578C18.6032 0.776862 17.6232 0.384218 16.6 0.359985C15.5762 0.382134 14.595 0.774065 13.8377 1.46337C13.0803 2.15267 12.5981 3.09277 12.48 4.10999H20.72Z" stroke="#1E1E1C" stroke-width="0.5" stroke-miterlimit="10"/>
<path d="M16.6 12.68V4.15002" stroke="#1E1E1C" stroke-width="0.5" stroke-miterlimit="10"/>
<path d="M12.48 4.10999V5.48998" stroke="#1E1E1C" stroke-width="0.5" stroke-miterlimit="10"/>
<path d="M20.72 4.10999V5.48998" stroke="#1E1E1C" stroke-width="0.5" stroke-miterlimit="10"/>
<path d="M14.85 4.22998V5.60998" stroke="#1E1E1C" stroke-width="0.5" stroke-miterlimit="10"/>
<path d="M18.36 4.22998V5.60998" stroke="#1E1E1C" stroke-width="0.5" stroke-miterlimit="10"/>
</svg>
