<svg width="25" height="25" viewBox="0 0 25 25" fill="none" xmlns="http://www.w3.org/2000/svg">
<path opacity="0.98" d="M21 9.37C20.3504 9.37024 19.7136 9.55021 19.16 9.89V5.49H13.42C13.556 5.1044 13.627 4.69887 13.63 4.29C13.63 3.82512 13.5384 3.36479 13.3605 2.9353C13.1826 2.50581 12.9219 2.11556 12.5932 1.78684C12.2644 1.45812 11.8742 1.19737 11.4447 1.01947C11.0152 0.841565 10.5549 0.75 10.09 0.75C9.62511 0.75 9.16479 0.841565 8.73529 1.01947C8.3058 1.19737 7.91555 1.45812 7.58683 1.78684C7.25812 2.11556 6.99736 2.50581 6.81946 2.9353C6.64156 3.36479 6.54999 3.82512 6.54999 4.29C6.55302 4.69887 6.62399 5.1044 6.75999 5.49H0.429993V10C0.883488 9.67587 1.40712 9.46341 1.95825 9.37993C2.50938 9.29644 3.07244 9.34429 3.60159 9.51957C4.13073 9.69485 4.61101 9.99261 5.00331 10.3886C5.39561 10.7846 5.68886 11.2677 5.85917 11.7984C6.02947 12.3292 6.07203 12.8927 5.98338 13.443C5.89473 13.9933 5.67737 14.5149 5.349 14.9654C5.02063 15.4158 4.59053 15.7823 4.09371 16.0351C3.5969 16.2879 3.04741 16.4198 2.48999 16.42C1.74975 16.4201 1.02853 16.1856 0.429993 15.75V24.23H6.99999C6.68322 23.6923 6.5142 23.0805 6.51007 22.4564C6.50594 21.8324 6.66685 21.2184 6.97649 20.6766C7.28612 20.1348 7.73349 19.6844 8.27324 19.3712C8.81299 19.058 9.42595 18.893 10.05 18.893C10.674 18.893 11.287 19.058 11.8267 19.3712C12.3665 19.6844 12.8139 20.1348 13.1235 20.6766C13.4331 21.2184 13.594 21.8324 13.5899 22.4564C13.5858 23.0805 13.4168 23.6923 13.1 24.23H19.15V15.93C19.6163 16.2152 20.1424 16.3885 20.6869 16.4364C21.2315 16.4843 21.7797 16.4054 22.2887 16.2059C22.7976 16.0064 23.2535 15.6918 23.6205 15.2867C23.9875 14.8816 24.2557 14.397 24.404 13.8708C24.5524 13.3447 24.5769 12.7914 24.4757 12.2542C24.3744 11.717 24.1501 11.2106 23.8204 10.7746C23.4906 10.3386 23.0644 9.98492 22.5751 9.74123C22.0857 9.49753 21.5466 9.37047 21 9.37V9.37Z" stroke="#1E1E1C" stroke-width="0.5" stroke-linecap="round" stroke-linejoin="round"/>
</svg>
