<svg width="25" height="25" viewBox="0 0 25 25" fill="none" xmlns="http://www.w3.org/2000/svg">
<path d="M6.59998 13.94L14.81 14.06" stroke="#1E1E1C" stroke-width="0.5" stroke-miterlimit="10"/>
<path d="M10.74 12.58C11.4027 12.58 11.94 12.0427 11.94 11.38C11.94 10.7173 11.4027 10.18 10.74 10.18C10.0772 10.18 9.53998 10.7173 9.53998 11.38C9.53998 12.0427 10.0772 12.58 10.74 12.58Z" stroke="#1E1E1C" stroke-width="0.5" stroke-miterlimit="10"/>
<path d="M20.9 5.37998C21.5628 5.37998 22.1 4.84272 22.1 4.17998C22.1 3.51724 21.5628 2.97998 20.9 2.97998C20.2373 2.97998 19.7 3.51724 19.7 4.17998C19.7 4.84272 20.2373 5.37998 20.9 5.37998Z" stroke="#1E1E1C" stroke-width="0.5" stroke-miterlimit="10"/>
<path d="M10.66 17.82C11.3228 17.82 11.86 17.2827 11.86 16.62C11.86 15.9572 11.3228 15.42 10.66 15.42C9.99728 15.42 9.46002 15.9572 9.46002 16.62C9.46002 17.2827 9.99728 17.82 10.66 17.82Z" stroke="#1E1E1C" stroke-width="0.5" stroke-miterlimit="10"/>
<path d="M12.76 1.48001L1.46 12.78C1.07468 13.1662 0.858276 13.6895 0.858276 14.235C0.858276 14.7806 1.07468 15.3038 1.46 15.69L9.34 23.57C9.52696 23.7683 9.75247 23.9262 10.0027 24.0342C10.2529 24.1421 10.5225 24.1978 10.795 24.1978C11.0675 24.1978 11.3371 24.1421 11.5873 24.0342C11.8375 23.9262 12.063 23.7683 12.25 23.57L23.54 12.28C23.7326 12.0913 23.885 11.8655 23.9881 11.6163C24.0913 11.3671 24.1429 11.0997 24.14 10.83V1.64001C24.14 1.42253 24.0536 1.21396 23.8998 1.06018C23.746 0.9064 23.5375 0.820007 23.32 0.820007L14.2 0.880007C13.6605 0.886659 13.1446 1.10165 12.76 1.48001V1.48001Z" stroke="#1E1E1C" stroke-width="0.5" stroke-miterlimit="10"/>
</svg>
