<svg width="25" height="25" viewBox="0 0 25 25" fill="none" xmlns="http://www.w3.org/2000/svg">
<path d="M13.76 11.85H22.07C22.4573 11.849 22.8399 11.9356 23.189 12.1033C23.5382 12.271 23.8449 12.5155 24.0863 12.8184C24.3276 13.1213 24.4974 13.4749 24.5829 13.8527C24.6684 14.2304 24.6674 14.6226 24.58 15L23.12 22C22.9965 22.5679 22.6818 23.0763 22.2287 23.4403C21.7755 23.8043 21.2112 24.0018 20.63 24H15.17C14.5876 24.0023 14.0219 23.8051 13.567 23.4412C13.1122 23.0774 12.7956 22.5687 12.67 22L11.25 15C11.1626 14.6226 11.1616 14.2304 11.2471 13.8527C11.3326 13.4749 11.5024 13.1213 11.7438 12.8184C11.9851 12.5155 12.2919 12.271 12.641 12.1033C12.9902 11.9356 13.3727 11.849 13.76 11.85V11.85Z" stroke="#1E1E1C" stroke-width="0.5" stroke-miterlimit="10"/>
<path d="M15.27 14.05H20.56C20.8066 14.0481 21.0504 14.1021 21.273 14.2081C21.4957 14.314 21.6914 14.4691 21.8454 14.6617C21.9994 14.8542 22.1078 15.0792 22.1623 15.3197C22.2168 15.5601 22.216 15.8098 22.16 16.05L21.23 20.48C21.1523 20.8443 20.9521 21.1711 20.6628 21.4058C20.3735 21.6405 20.0126 21.769 19.64 21.77H16.17C15.7949 21.769 15.4314 21.6394 15.1402 21.4028C14.8491 21.1662 14.6478 20.837 14.57 20.47L13.67 16C13.6226 15.7633 13.6284 15.5191 13.6869 15.285C13.7454 15.0508 13.8551 14.8326 14.0082 14.646C14.1613 14.4595 14.3539 14.3092 14.5721 14.2061C14.7903 14.1031 15.0287 14.0497 15.27 14.05Z" stroke="#1E1E1C" stroke-width="0.5" stroke-miterlimit="10"/>
<path d="M20.58 9.25H15.25V11.85H20.58V9.25Z" stroke="#1E1E1C" stroke-width="0.5" stroke-miterlimit="10"/>
<path d="M19.81 1.06995H16.02C15.1474 1.06995 14.44 1.77734 14.44 2.64995V7.67995C14.44 8.55256 15.1474 9.25995 16.02 9.25995H19.81C20.6826 9.25995 21.39 8.55256 21.39 7.67995V2.64995C21.39 1.77734 20.6826 1.06995 19.81 1.06995Z" stroke="#1E1E1C" stroke-width="0.5" stroke-miterlimit="10"/>
<path d="M19.59 2.94995V6.23995" stroke="#1E1E1C" stroke-width="0.5" stroke-linecap="round" stroke-linejoin="round"/>
<path d="M7.80999 10.3C8.32694 10.7249 8.74311 11.2592 9.02845 11.8645C9.31379 12.4698 9.46118 13.1308 9.45999 13.8V23.93H0.359987V13.8C0.359364 13.1128 0.514746 12.4344 0.814421 11.816C1.1141 11.1976 1.55024 10.6553 2.08999 10.23" stroke="#1E1E1C" stroke-width="0.5" stroke-linecap="round" stroke-linejoin="round"/>
<path d="M5.00003 5.55C5.74985 5.56311 6.46452 5.87021 6.99011 6.40515C7.51569 6.94009 7.81014 7.66006 7.81003 8.41V13.61C7.81003 13.9548 7.67306 14.2854 7.42927 14.5292C7.18547 14.773 6.85481 14.91 6.51003 14.91H3.39003C3.04525 14.91 2.71459 14.773 2.47079 14.5292C2.22699 14.2854 2.09003 13.9548 2.09003 13.61V8.41C2.08997 8.03017 2.16557 7.65414 2.31241 7.30385C2.45926 6.95356 2.67441 6.63603 2.9453 6.36979C3.2162 6.10355 3.53741 5.89393 3.89019 5.75318C4.24297 5.61243 4.62026 5.54336 5.00003 5.55V5.55Z" stroke="#1E1E1C" stroke-width="0.5" stroke-linecap="round" stroke-linejoin="round"/>
<path d="M2.78998 15.88C3.42258 16.3291 4.17918 16.5704 4.95498 16.5704C5.73078 16.5704 6.48738 16.3291 7.11998 15.88" stroke="#1E1E1C" stroke-width="0.5" stroke-linecap="round" stroke-linejoin="round"/>
</svg>
