<svg width="25" height="25" viewBox="0 0 25 25" fill="none" xmlns="http://www.w3.org/2000/svg">
<path d="M20.92 0.369995H4.09C3.38307 0.369995 2.81 0.943071 2.81 1.65V23.35C2.81 24.0569 3.38307 24.63 4.09 24.63H20.92C21.6269 24.63 22.2 24.0569 22.2 23.35V1.65C22.2 0.943071 21.6269 0.369995 20.92 0.369995Z" stroke="#1E1E1C" stroke-width="0.5" stroke-miterlimit="10"/>
<path d="M2.83002 5.10999H22.17" stroke="#1E1E1C" stroke-width="0.5" stroke-miterlimit="10"/>
<path d="M2.83002 6.58997H22.17" stroke="#1E1E1C" stroke-width="0.5" stroke-miterlimit="10"/>
<path d="M5.41001 3.98005C6.04514 3.98005 6.56001 3.46518 6.56001 2.83005C6.56001 2.19493 6.04514 1.68005 5.41001 1.68005C4.77488 1.68005 4.26001 2.19493 4.26001 2.83005C4.26001 3.46518 4.77488 3.98005 5.41001 3.98005Z" stroke="#1E1E1C" stroke-width="0.5" stroke-miterlimit="10"/>
<path d="M8.67002 3.98005C9.30515 3.98005 9.82002 3.46518 9.82002 2.83005C9.82002 2.19493 9.30515 1.68005 8.67002 1.68005C8.03489 1.68005 7.52002 2.19493 7.52002 2.83005C7.52002 3.46518 8.03489 3.98005 8.67002 3.98005Z" stroke="#1E1E1C" stroke-width="0.5" stroke-miterlimit="10"/>
<path d="M11.93 3.98005C12.5652 3.98005 13.08 3.46518 13.08 2.83005C13.08 2.19493 12.5652 1.68005 11.93 1.68005C11.2949 1.68005 10.78 2.19493 10.78 2.83005C10.78 3.46518 11.2949 3.98005 11.93 3.98005Z" stroke="#1E1E1C" stroke-width="0.5" stroke-miterlimit="10"/>
<path d="M20.74 2.82996H14.17" stroke="#1E1E1C" stroke-width="0.5" stroke-miterlimit="10" stroke-linecap="round"/>
<path d="M12.36 22.09C15.9112 22.09 18.79 19.2112 18.79 15.66C18.79 12.1088 15.9112 9.22998 12.36 9.22998C8.8088 9.22998 5.92999 12.1088 5.92999 15.66C5.92999 19.2112 8.8088 22.09 12.36 22.09Z" stroke="#1E1E1C" stroke-width="0.5" stroke-miterlimit="10"/>
<path d="M12.23 20.71C15.0135 20.71 17.27 18.4535 17.27 15.67C17.27 12.8865 15.0135 10.63 12.23 10.63C9.44649 10.63 7.19 12.8865 7.19 15.67C7.19 18.4535 9.44649 20.71 12.23 20.71Z" stroke="#1E1E1C" stroke-width="0.5" stroke-miterlimit="10"/>
<path d="M16.78 13.4301H14.18C14.0385 13.4327 13.9038 13.4907 13.8046 13.5917C13.7055 13.6927 13.65 13.8286 13.65 13.9701V16.8801C13.65 16.9497 13.6637 17.0186 13.6904 17.0829C13.717 17.1472 13.756 17.2056 13.8053 17.2548C13.8545 17.304 13.9129 17.3431 13.9772 17.3697C14.0415 17.3963 14.1104 17.4101 14.18 17.4101H17" stroke="#1E1E1C" stroke-width="0.5" stroke-miterlimit="10"/>
</svg>
