<svg width="25" height="25" viewBox="0 0 25 25" fill="none" xmlns="http://www.w3.org/2000/svg">
<path d="M16.87 0.339966H8.13C6.95363 0.339966 6 1.2936 6 2.46997V22.54C6 23.7163 6.95363 24.67 8.13 24.67H16.87C18.0464 24.67 19 23.7163 19 22.54V2.46997C19 1.2936 18.0464 0.339966 16.87 0.339966Z" stroke="#1E1E1C" stroke-width="0.5" stroke-miterlimit="10"/>
<path d="M17.57 3.34998H7.42999V21.26H17.57V3.34998Z" stroke="#1E1E1C" stroke-width="0.5" stroke-miterlimit="10"/>
<path d="M13.45 1.37H11.32C11.0991 1.37 10.92 1.54684 10.92 1.765C10.92 1.98315 11.0991 2.16 11.32 2.16H13.45C13.6709 2.16 13.85 1.98315 13.85 1.765C13.85 1.54684 13.6709 1.37 13.45 1.37Z" fill="#1E1E1C"/>
<path d="M12.45 23.98C12.9912 23.98 13.43 23.5413 13.43 23C13.43 22.4588 12.9912 22.02 12.45 22.02C11.9087 22.02 11.47 22.4588 11.47 23C11.47 23.5413 11.9087 23.98 12.45 23.98Z" stroke="#1E1E1C" stroke-width="0.5" stroke-miterlimit="10"/>
</svg>
