<svg width="25" height="25" viewBox="0 0 25 25" fill="none" xmlns="http://www.w3.org/2000/svg">
<path d="M21.2 5.52002H3.80002C3.02683 5.52002 2.40002 6.14682 2.40002 6.92002V16.3C2.40002 17.0732 3.02683 17.7 3.80002 17.7H21.2C21.9732 17.7 22.6 17.0732 22.6 16.3V6.92002C22.6 6.14682 21.9732 5.52002 21.2 5.52002Z" stroke="#1E1E1C" stroke-width="0.5" stroke-miterlimit="10"/>
<path d="M23.48 19.48H1.47998C1.35879 19.4801 1.23899 19.4543 1.12861 19.4043C1.01823 19.3543 0.919815 19.2812 0.839976 19.19L0.349976 18.67H24.61L24.11 19.2C24.03 19.2876 23.9327 19.3577 23.8243 19.4059C23.7158 19.4541 23.5986 19.4794 23.48 19.48Z" fill="#1E1E1C"/>
</svg>
