<svg width="25" height="25" viewBox="0 0 25 25" fill="none" xmlns="http://www.w3.org/2000/svg">
<path d="M12.5 24C18.8513 24 24 18.8513 24 12.5C24 6.14873 18.8513 1 12.5 1C6.14873 1 1 6.14873 1 12.5C1 18.8513 6.14873 24 12.5 24Z" stroke="#1E1E1C" stroke-width="0.5" stroke-miterlimit="10"/>
<path d="M10.0966 1C10.0966 1 9.3343 7.85855 12.0919 11.6041C12.0919 11.6041 20.4024 12.0883 23 17" stroke="#1E1E1C" stroke-width="0.5" stroke-miterlimit="10"/>
<path d="M5.16012 4C5.16012 4 3.80139 11.3846 9 16" stroke="#1E1E1C" stroke-width="0.5" stroke-miterlimit="10"/>
<path d="M10 5.12728C10 5.12728 18.57 3.75827 24 10" stroke="#1E1E1C" stroke-width="0.5" stroke-miterlimit="10"/>
<path d="M18 13C17.0841 15.5136 15.5992 17.7436 13.679 19.4892C11.7588 21.2348 9.46356 22.4413 7 23" stroke="#1E1E1C" stroke-width="0.5" stroke-miterlimit="10"/>
<path d="M12 11C12 11 10.8949 16.5927 3 19" stroke="#1E1E1C" stroke-width="0.5" stroke-miterlimit="10"/>
</svg>
