<svg width="25" height="24" viewBox="0 0 25 24" fill="none" xmlns="http://www.w3.org/2000/svg">
<g clip-path="url(#clip0_1_508)">
<path fill-rule="evenodd" clip-rule="evenodd" d="M14.0155 8.39135C14.4805 8.49043 14.8369 8.66714 15.1414 8.95226C15.5333 9.32229 15.748 9.77013 15.8424 10.4135C15.9063 10.833 15.8801 10.9979 15.7314 11.1347C15.5922 11.262 15.3349 11.2666 15.1791 11.1465C15.0658 11.0616 15.0304 10.972 15.0044 10.7292C14.9738 10.4062 14.9171 10.1801 14.8203 9.97035C14.6126 9.52494 14.2467 9.29393 13.6283 9.21854C13.3379 9.18309 13.2506 9.15025 13.1562 9.03941C12.9838 8.83433 13.05 8.502 13.2883 8.37941C13.378 8.33462 13.4157 8.32996 13.6141 8.34171C13.7371 8.34881 13.9188 8.37008 14.0155 8.39135ZM13.5128 6.61176C14.9457 6.8215 16.055 7.48616 16.7822 8.56563C17.1906 9.17376 17.4455 9.88787 17.5328 10.6539C17.5634 10.9343 17.5634 11.4458 17.5304 11.5307C17.4996 11.6107 17.4005 11.7191 17.3156 11.7639C17.2236 11.8111 17.0277 11.8063 16.9191 11.7498C16.7374 11.6578 16.6831 11.5117 16.6831 11.1157C16.6831 10.5053 16.5248 9.86175 16.2511 9.36204C15.9395 8.7916 15.4862 8.32026 14.9339 7.99259C14.4594 7.7097 13.7583 7.49997 13.1187 7.44809C12.8873 7.42925 12.7598 7.38204 12.6725 7.28072C12.538 7.12752 12.5238 6.92002 12.6371 6.74798C12.7597 6.55765 12.9485 6.52686 13.5128 6.61176ZM7.95362 5.1576C8.03628 5.18596 8.16373 5.25183 8.23687 5.29904C8.68527 5.5961 9.93399 7.19171 10.3425 7.9883C10.5761 8.44322 10.6541 8.78022 10.5809 9.03008C10.5054 9.29878 10.3803 9.44022 9.82072 9.8903C9.59643 10.0717 9.38632 10.2579 9.35329 10.3075C9.26839 10.4301 9.19991 10.6705 9.19991 10.8403C9.20234 11.2338 9.45723 11.9481 9.79236 12.4973C10.0519 12.9238 10.5169 13.4706 10.9773 13.8902C11.5178 14.3853 11.9946 14.7223 12.5329 14.9885C13.2247 15.3326 13.6471 15.4198 13.9563 15.2761C14.0341 15.2406 14.1168 15.1936 14.1427 15.1723C14.1662 15.1511 14.3482 14.9296 14.5463 14.6844C14.9287 14.2035 15.016 14.1257 15.2782 14.0361C15.6111 13.9231 15.9509 13.9537 16.2933 14.1281C16.553 14.2625 17.1195 14.6137 17.4853 14.8682C17.9669 15.2052 18.996 16.0443 19.1353 16.2117C19.3807 16.5134 19.4233 16.8999 19.2581 17.3266C19.0835 17.7767 18.4037 18.6205 17.9292 18.9812C17.4996 19.3064 17.1951 19.4313 16.7937 19.4501C16.4633 19.4665 16.3263 19.4384 15.9038 19.2639C12.5898 17.8993 9.94369 15.8629 7.84278 13.0651C6.74521 11.6038 5.90943 10.0883 5.33825 8.51618C5.00536 7.59943 4.98894 7.20104 5.26268 6.73193C5.3808 6.53395 5.88349 6.04375 6.24941 5.77039C6.85847 5.31788 7.1393 5.15051 7.36359 5.1033C7.51698 5.07027 7.78381 5.09621 7.95362 5.1576ZM13.3499 4.90308C14.1619 5.0044 14.818 5.19995 15.5381 5.55132C16.2462 5.89783 16.6995 6.2255 17.299 6.82168C17.8609 7.38502 18.1725 7.81159 18.503 8.47383C18.9633 9.39768 19.2253 10.4962 19.2701 11.7052C19.2867 12.1175 19.2747 12.2095 19.1803 12.3275C19.001 12.556 18.6067 12.5183 18.4722 12.2614C18.4296 12.1765 18.4179 12.1035 18.4037 11.7734C18.38 11.2666 18.3447 10.9392 18.2738 10.5479C17.9952 9.01347 17.2587 7.78789 16.0832 6.90864C15.1035 6.17325 14.0908 5.81498 12.7643 5.73717C12.3157 5.71124 12.2379 5.69481 12.1364 5.617C11.9476 5.46847 11.9381 5.11972 12.1198 4.957C12.2308 4.85568 12.3086 4.8415 12.6934 4.85325C12.8944 4.86053 13.1894 4.88423 13.3499 4.90308ZM12.6346 0.0384521C19.2301 0.0384521 24.5769 5.38525 24.5769 11.9808C24.5769 18.5763 19.2301 23.9231 12.6346 23.9231C6.03912 23.9231 0.692322 18.5763 0.692322 11.9808C0.692322 5.38525 6.03912 0.0384521 12.6346 0.0384521Z" fill="#7F4DA0"/>
</g>
<defs>
<clipPath id="clip0_1_508">
<rect width="23.8846" height="23.8846" fill="white" transform="translate(0.692322 0.0384521)"/>
</clipPath>
</defs>
</svg>
