<svg width="25" height="24" viewBox="0 0 25 24" fill="none" xmlns="http://www.w3.org/2000/svg">
<g clip-path="url(#clip0_1_502)">
<path d="M14.2413 11.7813L11.559 10.5297C11.325 10.4211 11.1327 10.5429 11.1327 10.802V13.1594C11.1327 13.4186 11.325 13.5404 11.559 13.4317L14.2401 12.1802C14.4753 12.0703 14.4753 11.8912 14.2413 11.7813ZM12.3269 0.516113C5.99511 0.516113 0.862305 5.64892 0.862305 11.9807C0.862305 18.3125 5.99511 23.4453 12.3269 23.4453C18.6587 23.4453 23.7915 18.3125 23.7915 11.9807C23.7915 5.64892 18.6587 0.516113 12.3269 0.516113ZM12.3269 16.6382C6.45847 16.6382 6.35577 16.1092 6.35577 11.9807C6.35577 7.85227 6.45847 7.32323 12.3269 7.32323C18.1954 7.32323 18.2981 7.85227 18.2981 11.9807C18.2981 16.1092 18.1954 16.6382 12.3269 16.6382Z" fill="#FF0000"/>
</g>
<defs>
<clipPath id="clip0_1_502">
<rect width="23.8846" height="23.8846" fill="white" transform="translate(0.384644 0.0384521)"/>
</clipPath>
</defs>
</svg>
